<?xml version="1.0" standalone="no"?>
<!DOCTYPE svg PUBLIC "-//W3C//DTD SVG 20010904//EN"
 "http://www.w3.org/TR/2001/REC-SVG-20010904/DTD/svg10.dtd">
<svg version="1.0" xmlns="http://www.w3.org/2000/svg"
 width="310.000000pt" height="310.000000pt" viewBox="0 0 310.000000 310.000000"
 preserveAspectRatio="xMidYMid meet">
<metadata>
Created by potrace 1.11, written by Peter Selinger 2001-2013
</metadata>
<g transform="translate(0.000000,310.000000) scale(0.100000,-0.100000)"
fill="#000000" stroke="none">
<path d="M162 3088 c2 -6 13 -16 23 -22 177 -99 315 -220 405 -352 70 -103 92
-137 123 -190 19 -34 38 -72 42 -85 4 -13 12 -33 19 -44 7 -11 29 -62 51 -113
21 -51 42 -95 47 -98 4 -3 8 -13 8 -22 0 -9 12 -39 25 -67 14 -27 25 -55 25
-61 0 -6 6 -17 14 -23 8 -7 17 -24 21 -39 3 -15 15 -47 27 -72 51 -112 62
-137 74 -165 7 -16 33 -74 58 -127 25 -53 46 -100 46 -104 0 -4 21 -50 46
-103 26 -53 52 -109 59 -126 7 -16 33 -73 58 -125 25 -52 54 -115 65 -140 11
-25 41 -89 66 -143 25 -53 46 -101 46 -106 0 -5 16 -40 36 -78 19 -37 49 -99
65 -138 17 -38 47 -106 68 -150 21 -44 53 -114 71 -155 35 -84 63 -126 76
-117 10 6 42 66 75 142 12 28 43 95 69 150 26 55 58 123 70 150 12 28 39 84
59 125 36 75 36 76 36 205 0 147 -17 214 -96 382 -22 48 -46 102 -54 118 -7
17 -31 68 -53 115 -22 47 -53 114 -67 150 -15 36 -45 99 -66 140 -21 42 -39
79 -39 83 0 10 -47 115 -61 137 -5 8 -12 22 -15 30 -4 8 -17 38 -30 67 -13 28
-24 55 -24 58 0 4 -27 63 -60 131 -33 68 -60 126 -60 130 0 4 -21 50 -46 103
-26 53 -52 110 -59 126 -7 17 -38 83 -69 147 -61 130 -119 198 -202 238 -25
13 -48 29 -51 36 -7 19 -927 21 -921 2z"/>
<path d="M2661 1339 c-195 -77 -243 -335 -91 -487 42 -41 95 -64 180 -78 90
-15 220 57 277 154 25 43 27 56 27 142 0 83 -3 100 -24 135 -80 130 -235 187
-369 134z"/>
<path d="M477 893 c-3 -5 -8 -28 -12 -53 -3 -25 -15 -72 -25 -105 -10 -33 -22
-78 -28 -100 -24 -91 -44 -143 -102 -265 -52 -109 -81 -152 -143 -213 -36 -36
-56 -62 -50 -68 14 -14 735 -7 740 7 2 6 -24 28 -57 49 -68 42 -112 93 -149
169 -23 47 -24 62 -25 212 -1 106 -5 166 -13 175 -6 8 -28 52 -48 99 -21 47
-43 88 -49 92 -14 10 -34 10 -39 1z"/>
</g>
</svg>
