<svg width="89" height="86" viewBox="0 0 89 86" fill="none" xmlns="http://www.w3.org/2000/svg">
<rect x="0.550781" y="0.291992" width="88.4487" height="85.3988" fill="url(#paint0_linear)"/>
<path fill-rule="evenodd" clip-rule="evenodd" d="M0.550781 0.291992H88.9995V85.6908H0.550781V0.291992ZM81.5118 85.7014H8.03848C2.67055 85.7014 0.550781 83.5955 0.550781 78.3907V36.8915L2.07576 33.8415L16.6546 23.4717L19.0335 25.387L4.40902 35.8881L44.7751 64.4295L85.1413 35.885L70.5168 25.384L72.8957 23.4686L87.4745 33.8415L88.9995 36.8915V78.3922C88.9995 83.5954 86.8645 85.7014 81.5118 85.7014ZM47.8251 44.5164C47.8251 45.1196 47.6463 45.7093 47.3111 46.2108C46.976 46.7124 46.4996 47.1033 45.9423 47.3341C45.385 47.565 44.7718 47.6254 44.1802 47.5077C43.5886 47.39 43.0451 47.0995 42.6185 46.673C42.192 46.2465 41.9015 45.703 41.7838 45.1114C41.6661 44.5197 41.7265 43.9065 41.9573 43.3492C42.1882 42.7919 42.5792 42.3156 43.0808 41.9804C43.5823 41.6453 44.1719 41.4664 44.7751 41.4664C45.584 41.4664 46.3598 41.7877 46.9317 42.3597C47.5037 42.9317 47.8251 43.7075 47.8251 44.5164ZM52.8271 22.6939C47.4744 28.0466 46.4374 27.4214 46.3001 33.843C46.3001 34.2475 46.1395 34.6354 45.8535 34.9213C45.5676 35.2073 45.1796 35.368 44.7751 35.368C44.3707 35.368 43.9827 35.2073 43.6968 34.9213C43.4108 34.6354 43.2502 34.2475 43.2502 33.843C43.2654 27.1331 45.0802 25.5136 50.5091 20.6062C52.8575 18.3767 55.4348 15.6058 55.4653 12.292C55.511 5.95574 50.2498 3.29466 45.3394 3.26111C39.1327 3.22451 35.7626 6.08845 34.5579 11.127C34.2501 12.0592 34.0955 13.0351 34.1003 14.0168C34.0695 14.394 33.8995 14.7463 33.6234 15.0051C33.3473 15.264 32.9848 15.411 32.6064 15.4174C32.228 15.4239 31.8608 15.2894 31.576 15.0401C31.2913 14.7909 31.1093 14.4446 31.0656 14.0686H31.0351C31.0107 12.4732 31.3278 10.8909 31.9653 9.42813C33.8563 3.83604 38.5837 0.314889 45.5224 0.314889C52.6135 0.314889 58.4847 4.70984 58.4847 12.1014C58.4847 16.8792 56.0905 19.6348 52.8271 22.6924V22.6939ZM85.6141 79.7449C84.3941 78.6911 82.8691 77.3842 81.1611 75.9172L81.2069 75.9645C81.3171 75.6603 81.3738 75.3394 81.3746 75.0159V42.3387C83.1436 41.0638 84.7143 39.9292 85.9496 39.0432V78.0659C85.9485 78.6416 85.8346 79.2115 85.6141 79.7434V79.7449ZM8.17567 75.0159C8.17667 75.3389 8.2334 75.6593 8.3434 75.9629C6.65067 77.4117 5.14092 78.7079 3.93619 79.7434C3.71571 79.2115 3.60177 78.6416 3.60074 78.0659V39.0356C4.83597 39.9186 6.4067 41.0486 8.17567 42.3204V75.0159ZM11.2256 78.0659H78.3247C78.4729 78.061 78.6207 78.0462 78.767 78.0217L83.5096 82.0842C82.8552 82.4438 82.1214 82.6346 81.3746 82.6393H8.17567C7.42894 82.6346 6.69513 82.4438 6.04067 82.0842L10.7833 78.0217C10.9296 78.0462 11.0774 78.061 11.2256 78.0659Z" fill="white"/>
<path opacity="0.9" fill-rule="evenodd" clip-rule="evenodd" d="M81.2068 75.9631C76.3268 71.7755 69.8151 66.2032 63.7457 60.9924L61.0619 62.8818L78.7668 78.0218C78.6206 78.0464 78.4728 78.0611 78.3245 78.066H11.2255C11.0773 78.0611 10.9295 78.0464 10.7832 78.0218L28.4882 62.8818L25.8044 60.9924C19.735 66.2017 13.2232 71.7755 8.34326 75.9631C8.23326 75.6594 8.17653 75.3391 8.17554 75.0161V42.3206C17.5389 49.0305 33.0785 60.1628 40.2611 65.1434C40.5699 65.3519 40.8652 65.5796 41.1456 65.825C41.6126 66.3187 42.1752 66.7121 42.7992 66.9814C43.4231 67.2506 44.0954 67.3901 44.775 67.3912C45.4595 67.3818 46.1353 67.2369 46.7635 66.965C47.3917 66.693 47.9597 66.2994 48.435 65.8067C48.7095 65.5811 49.0603 65.2791 49.411 65.0443C56.6852 60.0698 72.0874 49.032 81.3745 42.348V75.0161C81.3735 75.3391 81.3168 75.6594 81.2068 75.9631Z" fill="white"/>
<defs>
<linearGradient id="paint0_linear" x1="-6.8504" y1="0.291994" x2="94.3436" y2="99.4117" gradientUnits="userSpaceOnUse">
<stop stop-color="#D4B172"/>
<stop offset="0.180055" stop-color="#F3C168"/>
<stop offset="0.785637" stop-color="#DEB66F"/>
<stop offset="1" stop-color="#D4B172"/>
</linearGradient>
</defs>
</svg>
