<svg width="26" height="18" viewBox="0 0 26 18" fill="none" xmlns="http://www.w3.org/2000/svg">
<path d="M24.8745 7.87468H3.8425L8.86104 2.85582C9.30069 2.41643 9.30069 1.70364 8.86104 1.26431C8.42138 0.824656 7.7086 0.824656 7.26959 1.26431L0.329742 8.20429C-0.109914 8.64369 -0.109914 9.35654 0.329742 9.7958L7.26959 16.7361C7.48936 16.956 7.77737 17.0658 8.06531 17.0658C8.35326 17.0658 8.64127 16.956 8.86104 16.7361C9.30069 16.2967 9.30069 15.5839 8.86104 15.1447L3.8425 10.1255H24.8745C25.496 10.1255 26 9.6216 26 9.00008C26 8.37856 25.4961 7.87468 24.8745 7.87468Z" fill="#A8A8A8"/>
</svg>
