<svg width="35" height="35" viewBox="0 0 35 35" fill="none" xmlns="http://www.w3.org/2000/svg">
<path fill-rule="evenodd" clip-rule="evenodd" d="M17.5 35C27.165 35 35 27.165 35 17.5C35 7.83502 27.165 0 17.5 0C7.83502 0 0 7.83502 0 17.5C0 27.165 7.83502 35 17.5 35ZM17.5 32.9C26.0052 32.9 32.9 26.0052 32.9 17.5C32.9 8.99481 26.0052 2.1 17.5 2.1C8.99481 2.1 2.1 8.99481 2.1 17.5C2.1 26.0052 8.99481 32.9 17.5 32.9ZM18.7702 25.2V17.4991H21.0481L21.35 14.8453H18.7702L18.774 13.5171C18.774 12.8249 18.8445 12.4541 19.9098 12.4541H21.3339V9.8H19.0556C16.319 9.8 15.3558 11.0874 15.3558 13.2523V14.8456H13.65V17.4994H15.3558V25.2H18.7702Z" fill="white" fill-opacity="0.8"/>
</svg>
