<svg width="35" height="35" viewBox="0 0 35 35" fill="none" xmlns="http://www.w3.org/2000/svg">
<circle cx="17.5" cy="17.5" r="16.5" stroke="white" stroke-opacity="0.8" stroke-width="2"/>
<path d="M20.9396 10H14.0604C11.8214 10 10 11.8214 10 14.0604V20.9397C10 23.1785 11.8214 25 14.0604 25H20.9397C23.1785 25 25 23.1785 25 20.9397V14.0604C25 11.8214 23.1785 10 20.9396 10ZM17.5 21.6014C15.2384 21.6014 13.3985 19.7616 13.3985 17.5C13.3985 15.2384 15.2384 13.3985 17.5 13.3985C19.7616 13.3985 21.6014 15.2384 21.6014 17.5C21.6014 19.7616 19.7616 21.6014 17.5 21.6014ZM21.6995 14.3658C21.0312 14.3658 20.4876 13.8222 20.4876 13.1539C20.4876 12.4855 21.0312 11.9418 21.6995 11.9418C22.3678 11.9418 22.9115 12.4855 22.9115 13.1539C22.9115 13.8222 22.3678 14.3658 21.6995 14.3658Z" fill="white" fill-opacity="0.8"/>
<path d="M17.5 15C16.1216 15 15 16.1215 15 17.5C15 18.8784 16.1216 20 17.5 20C18.8785 20 20 18.8784 20 17.5C20 16.1215 18.8785 15 17.5 15Z" fill="white" fill-opacity="0.8"/>
<path d="M21.6998 12.8213C21.5164 12.8213 21.3672 12.9705 21.3672 13.1539C21.3672 13.3372 21.5164 13.4864 21.6998 13.4864C21.8832 13.4864 22.0324 13.3373 22.0324 13.1539C22.0324 12.9704 21.8832 12.8213 21.6998 12.8213Z" fill="white" fill-opacity="0.8"/>
</svg>
