<svg width="35" height="35" viewBox="0 0 35 35" fill="none" xmlns="http://www.w3.org/2000/svg">
<path d="M6.57536 14.1742C6.80855 14.7828 7.09598 15.3698 7.39265 15.9495C8.09758 17.3268 8.82354 18.6652 9.79685 19.8758C10.7805 21.0992 11.9418 22.2848 13.3097 23.0762C13.6902 23.2963 14.0902 23.482 14.5068 23.6231C16.1143 24.1676 17.8773 24.1158 18.4218 23.7528C18.9663 23.3898 18.3181 21.0045 18.8107 20.7193C19.3033 20.434 20.1849 21.0563 20.833 21.6267C21.4812 22.1971 21.9738 22.6897 22.3368 23.0786C22.5641 23.3222 22.7242 23.6129 23.0205 23.7866C23.5107 24.0739 24.1638 24.042 24.7106 24.0435C25.0154 24.0444 25.3204 24.0455 25.6252 24.0416C25.8312 24.0391 26.0373 24.0458 26.2432 24.0358C26.5815 24.0194 27.0239 23.8858 26.9985 23.4626C26.9925 23.3625 26.9703 23.2429 26.9306 23.1505C26.8451 22.952 26.7247 22.746 26.5953 22.573C25.9213 21.6721 25.474 21.2119 25.137 20.8489C24.7999 20.4859 23.4128 19.1765 23.3221 18.9173C23.2313 18.658 23.2021 18.543 23.4598 18.193C23.7174 17.8429 24.2814 16.9598 24.7222 16.3246C24.9986 15.9262 25.2497 15.5096 25.4978 15.0932C25.7903 14.6023 26.0654 14.0995 26.2999 13.5781C26.4048 13.345 26.4999 13.1326 26.435 12.8714C26.3915 12.6964 26.293 12.5426 26.1098 12.4994C26.0097 12.4758 25.9005 12.4735 25.7981 12.4735C25.4157 12.4735 24.4175 12.4735 24.4175 12.4735C24.237 12.4735 24.0566 12.4708 23.8761 12.4712C23.6911 12.4715 23.5045 12.47 23.3201 12.4858C23.0576 12.5083 22.8968 12.7107 22.7648 12.9148C22.6033 13.1645 22.4563 13.4242 22.2996 13.6771C22.1925 13.8499 22.0877 14.024 21.9847 14.1993C21.8239 14.4731 21.6582 14.7439 21.4924 15.0148C21.4237 15.1271 21.3546 15.2394 21.2868 15.3523C21.0924 15.6763 19.4071 17.8931 19.0701 17.9839C18.733 18.0747 18.6163 18.0488 18.6163 17.3617C18.6163 16.6746 18.6163 12.7725 18.6163 12.7725C18.6163 12.7725 18.5905 12.4717 18.3053 12.4717C18.02 12.4717 16.6972 12.4717 16.6972 12.4717H13.9688C13.9688 12.4717 13.3272 12.4743 13.554 13.0513C13.7809 13.6281 14.4518 13.8032 14.4518 14.7657C14.4518 15.7282 14.4518 18.5381 14.4518 18.5381C14.4518 18.5381 14.3384 19.384 13.6059 18.6839C13.0287 18.1323 12.5531 17.4801 12.1329 16.8038C11.6961 16.1008 11.3441 15.3704 11.0306 14.6051C10.9409 14.3862 10.8521 14.167 10.76 13.9492C10.6639 13.7218 10.5687 13.494 10.4765 13.2649C10.3694 12.9989 10.2549 12.6512 9.96621 12.5288C9.82108 12.4672 9.66057 12.4702 9.50588 12.4702C8.9322 12.4704 8.35855 12.472 7.7849 12.4709C7.61657 12.4706 7.44825 12.4704 7.27993 12.4709C6.88251 12.4718 6.3882 12.4601 6.29392 12.9566C6.23959 13.2425 6.34759 13.5478 6.43799 13.8156C6.47896 13.9374 6.52951 14.0544 6.57536 14.1742Z" fill="white" fill-opacity="0.8"/>
<circle cx="17.5" cy="17.5" r="16.5" stroke="white" stroke-opacity="0.8" stroke-width="2"/>
</svg>
