<svg width="35" height="35" viewBox="0 0 35 35" fill="none" xmlns="http://www.w3.org/2000/svg">
<path fill-rule="evenodd" clip-rule="evenodd" d="M35 17.5C35 7.83502 27.165 0 17.5 0C7.83502 0 0 7.83502 0 17.5C0 27.165 7.83502 35 17.5 35C27.165 35 35 27.165 35 17.5ZM32.9 17.5C32.9 8.99481 26.0052 2.1 17.5 2.1C8.99481 2.1 2.1 8.99481 2.1 17.5C2.1 26.0052 8.99481 32.9 17.5 32.9C26.0052 32.9 32.9 26.0052 32.9 17.5ZM25.7378 21.5358C25.5289 22.4439 24.7861 23.1134 23.8923 23.2133C21.7752 23.4499 19.6325 23.451 17.4989 23.4499C15.3656 23.451 13.2226 23.4499 11.1057 23.2133C10.2117 23.1134 9.46936 22.4439 9.2606 21.5358C8.96334 20.2426 8.96334 18.8314 8.96334 17.5002C8.96334 16.1688 8.96686 14.7574 9.26393 13.4642C9.47288 12.5561 10.2153 11.8864 11.109 11.7867C13.2261 11.5501 15.3689 11.549 17.5024 11.5501C19.6358 11.549 21.7788 11.5501 23.8957 11.7867C24.7896 11.8864 25.5324 12.5561 25.7412 13.4642C26.0384 14.7574 26.0367 16.1688 26.0367 17.5002C26.0367 18.8314 26.0349 20.2426 25.7378 21.5358ZM15.9633 14.35L20.6883 17.078L15.9633 19.806V14.35Z" fill="white" fill-opacity="0.8"/>
</svg>
