<svg width="17" height="17" viewBox="0 0 17 17" fill="none" xmlns="http://www.w3.org/2000/svg">
<path d="M16.7641 7.90594L8.91844 0.17884C8.67613 -0.0596134 8.32401 -0.0596134 8.08139 0.17884L0.235747 7.90594C0.0240904 8.11421 -0.0547618 8.4568 0.0390947 8.76317C0.132632 9.06916 0.378766 9.27328 0.65427 9.2729H2.61568V16.2273C2.61568 16.654 2.90842 17 3.26948 17H7.15974C7.51889 17 7.81099 16.6574 7.81355 16.2326L7.84164 11.591H9.15372V16.2273C9.15372 16.654 9.44646 17 9.80752 17H13.7303C14.0914 17 14.3841 16.654 14.3841 16.2273V9.2729H16.3456C16.6211 9.27328 16.8672 9.06916 16.9611 8.76317C17.0546 8.4568 16.9761 8.11421 16.7641 7.90594ZM13.7303 7.72748C13.3693 7.72748 13.0765 8.07346 13.0765 8.50019V15.4546H10.4613V10.8183C10.4613 10.3916 10.1686 10.0456 9.80752 10.0456H7.19231C6.83316 10.0456 6.54106 10.3882 6.5385 10.813L6.51105 15.4546H3.92329V8.50019C3.92329 8.07346 3.63055 7.72748 3.26948 7.72748H2.46021L8.49991 1.77746L14.5399 7.72748H13.7303Z" fill="#D49F40"/>
</svg>
