<svg xmlns="http://www.w3.org/2000/svg" width="19" height="19" viewBox="0 0 19 19"><g><g><path fill="#fff" fill-opacity=".8" d="M13.73.29a4.994 4.994 0 0 1 4.989 4.988v8.452a4.994 4.994 0 0 1-4.989 4.988H5.278A4.994 4.994 0 0 1 .29 13.73V5.278A4.994 4.994 0 0 1 5.278.29zm.813 9.214a5.045 5.045 0 0 0-5.039-5.039 5.045 5.045 0 0 0-5.039 5.04 5.045 5.045 0 0 0 5.04 5.038 5.045 5.045 0 0 0 5.038-5.039zm1.61-5.34a1.49 1.49 0 0 0-1.49-1.488 1.49 1.49 0 0 0-1.488 1.489 1.49 1.49 0 0 0 1.489 1.489 1.49 1.49 0 0 0 1.489-1.49z"/></g></g></svg>