<svg width="22" height="19" viewBox="0 0 22 19" fill="none" xmlns="http://www.w3.org/2000/svg">
<path d="M21.0435 1.9C20.5152 1.9 20.087 2.32536 20.087 2.85V6.51486L16.329 2.78231C14.5982 1.06305 12.2067 0 9.56522 0C4.28259 0 0 4.25339 0 9.5C0 14.7469 4.28259 19 9.56522 19C14.1929 19 18.0524 15.7363 18.9387 11.4H16.9763C16.1267 14.678 13.1307 17.1 9.56522 17.1C5.33907 17.1 1.91304 13.6973 1.91304 9.5C1.91304 5.30266 5.33907 1.9 9.56522 1.9C11.6794 1.9 13.5934 2.75144 14.9782 4.12823L18.474 7.6H15.3043C14.7761 7.6 14.3478 8.02536 14.3478 8.55C14.3478 9.07464 14.7761 9.5 15.3043 9.5H20.3871H21.0435C21.5717 9.5 22 9.07464 22 8.55V2.85C22 2.32536 21.5717 1.9 21.0435 1.9Z" fill="#DE9B27"/>
</svg>
