<svg width="119" height="116" viewBox="0 0 119 116" fill="none" xmlns="http://www.w3.org/2000/svg">
<path d="M3.65771 0.00338345C3.65771 0.00338345 21.4102 4.87961 31.2389 30.2512L42.3628 55.0895L70.1725 115.204L81.9059 90.1374C81.9059 90.1374 85.4869 82.7469 78.2487 68.4991L51.7343 11.2035C51.7343 11.2035 48.2295 -0.22519 36.4961 0.00338345H3.65771Z" fill="white"/>
<path d="M106.82 88.9945C113.09 88.9945 118.173 83.9118 118.173 77.642C118.173 71.3722 113.09 66.2896 106.82 66.2896C100.55 66.2896 95.4678 71.3722 95.4678 77.642C95.4678 83.9118 100.55 88.9945 106.82 88.9945Z" fill="white"/>
<path d="M18.8954 80.3086C18.8954 80.3086 13.2572 113.909 0 114.29H37.7146C37.7146 114.29 20.0382 111.928 24.7621 92.5754L18.8954 80.3086Z" fill="white"/>
</svg>
