<svg width="132" height="15" viewBox="0 0 132 15" fill="none" xmlns="http://www.w3.org/2000/svg">
<path d="M9.14609 1.3216L1.24609 14.6416H0.346094V0.641601H0.946094V13.9616L8.84609 0.641601H9.74609V14.6416H9.14609V1.3216ZM23.9398 1.2416V14.6416H23.3398V0.641601H32.7198V14.6416H32.1198V1.2416H23.9398ZM39.018 10.0416L37.478 14.7416L36.918 14.5416L41.498 0.641601H42.698L47.278 14.5416L46.718 14.7416L45.178 10.0416H39.018ZM39.218 9.4416H44.978L42.278 1.2416H41.918L39.218 9.4416ZM52.0703 8.7816V14.6416H51.4703V0.641601H58.9903L60.8503 2.4816V6.9416L58.9903 8.7816H52.0703ZM58.7503 1.2416H52.0703V8.1816H58.7503L60.2703 6.6816V2.7416L58.7503 1.2416ZM68.9523 1.2416V14.6416H68.3523V1.2416H63.6523V0.641601H73.6523V1.2416H68.9523ZM86.2323 6.9216V0.641601H86.8323V14.6416H86.2323V7.5216H78.0523V14.6416H77.4523V0.641601H78.0523V6.9216H86.2323ZM92.2305 14.6416V0.641601H100.77V1.2416H92.8305V6.9416H99.9305V7.5416H92.8305V14.0416H100.77V14.6416H92.2305ZM105.577 8.7816V14.6416H104.977V0.641601H112.497L114.357 2.4816V6.9416L112.497 8.7816H105.577ZM112.257 1.2416H105.577V8.1816H112.257L113.777 6.6816V2.7416L112.257 1.2416ZM130.795 14.6416V0.641601H131.395V14.6416H130.795ZM118.955 14.6416V0.641601H119.555V6.6616H126.495L128.335 8.5416V12.7616L126.495 14.6416H118.955ZM127.735 8.8016L126.235 7.2616H119.555V14.0416H126.235L127.735 12.5016V8.8016Z" fill="white"/>
</svg>
