<svg width="111" height="15" viewBox="0 0 111 15" fill="none" xmlns="http://www.w3.org/2000/svg">
<path d="M6.16609 11.238L2.82609 5.33801L2.34609 4.11801H2.26609L2.44609 5.35801V14.458H0.146094V0.258007H2.42609L6.78609 7.91801L7.02609 8.57801H7.10609L7.34609 7.91801L11.7061 0.258007H13.9861V14.458H11.6861V5.35801L11.8661 4.11801H11.7861L11.3061 5.33801L7.96609 11.238H6.16609ZM25.9067 11.078H21.1467L19.9267 14.858L17.7867 14.178L22.2467 0.258007H24.8067L29.2667 14.178L27.1267 14.858L25.9067 11.078ZM23.2667 4.41801L21.8067 8.97801H25.2467L23.7867 4.41801L23.5667 3.05801H23.4867L23.2667 4.41801ZM36.7955 2.35801V14.458H34.4955V2.35801H30.4555V0.258007H40.8355V2.35801H36.7955ZM52.9967 7.05801L54.7367 8.41801V12.138L52.4167 14.458H44.6367V0.258007H52.3967L54.3167 2.17801V6.01801L52.9967 7.05801ZM52.4367 9.13801L51.1167 8.11801H46.9367V12.358H51.4367L52.4367 11.358V9.13801ZM46.9367 2.35801V6.01801H51.2167L52.0167 5.39801V2.97801L51.3967 2.35801H46.9367ZM59.3367 14.458V0.258007H68.3967V2.35801H61.6367V5.99801H67.5567V8.09801H61.6367V12.358H68.3967V14.458H59.3367ZM72.5914 14.458V0.258007H81.6514V2.35801H74.8914V5.99801H80.8114V8.09801H74.8914V12.358H81.6514V14.458H72.5914ZM94.2061 7.05801L95.9461 8.41801V12.138L93.6261 14.458H85.8461V0.258007H93.6061L95.5261 2.17801V6.01801L94.2061 7.05801ZM93.6461 9.13801L92.3261 8.11801H88.1461V12.358H92.6461L93.6461 11.358V9.13801ZM88.1461 2.35801V6.01801H92.4261L93.2261 5.39801V2.97801L92.6061 2.35801H88.1461ZM107.466 11.078H102.706L101.486 14.858L99.3461 14.178L103.806 0.258007H106.366L110.826 14.178L108.686 14.858L107.466 11.078ZM104.826 4.41801L103.366 8.97801H106.806L105.346 4.41801L105.126 3.05801H105.046L104.826 4.41801Z" fill="#E9B365"/>
</svg>
