<svg width="28" height="28" viewBox="0 0 28 28" fill="none" xmlns="http://www.w3.org/2000/svg">
<path d="M24.8769 28H3.12295C2.75966 28 2.46511 27.7055 2.46511 27.3422V12.8329C2.46454 12.7674 2.47367 12.7016 2.49291 12.6379L2.49299 12.6374C2.49315 12.637 2.49332 12.6365 2.49348 12.636C2.49357 12.6356 2.49365 12.6353 2.49373 12.635C2.49389 12.6347 2.49398 12.6344 2.49406 12.6341C2.49422 12.6336 2.49431 12.6331 2.49447 12.6326C2.49455 12.6325 2.49455 12.6323 2.49463 12.6323C2.4948 12.6316 2.49496 12.631 2.49521 12.6305C2.52251 12.5433 2.56741 12.4641 2.62579 12.3968C2.68491 12.3285 2.7553 12.2751 2.83211 12.2374C2.9122 12.1978 3.0015 12.174 3.09598 12.1703C3.10708 12.1699 3.11827 12.1696 3.1292 12.1697H6.10256L6.48838 9.64255C6.53748 9.32127 6.81369 9.08396 7.13866 9.08396H20.8612C21.1862 9.08396 21.4625 9.32127 21.5115 9.64246L21.8974 12.1697H24.871C24.8813 12.1696 24.8925 12.1698 24.9032 12.1702C24.9945 12.1738 25.081 12.196 25.159 12.2332C25.2391 12.2711 25.3126 12.3258 25.3739 12.3967C25.4277 12.4587 25.47 12.5307 25.4978 12.6097V12.6098C25.498 12.6104 25.4983 12.6111 25.4984 12.6116H25.4985C25.4987 12.6123 25.4989 12.6129 25.4991 12.6134C25.4992 12.6135 25.4992 12.6135 25.4992 12.6135C25.4993 12.6142 25.4996 12.6148 25.4998 12.6153V12.6154C25.5001 12.6161 25.5002 12.6166 25.5004 12.6171C25.5005 12.6172 25.5005 12.6173 25.5005 12.6173C25.5007 12.618 25.5009 12.6185 25.501 12.619C25.5011 12.6191 25.5011 12.6192 25.5011 12.6192C25.5014 12.6199 25.5015 12.6203 25.5017 12.6209C25.5018 12.621 25.5018 12.6212 25.5018 12.6212C25.502 12.6217 25.5022 12.6223 25.5024 12.6229L25.5024 12.6232C25.5026 12.6238 25.5028 12.6243 25.503 12.6248L25.5031 12.6252C25.5033 12.6257 25.5034 12.6263 25.5036 12.6268C25.5037 12.6269 25.5037 12.627 25.5038 12.6272C25.5039 12.6277 25.5041 12.6282 25.5043 12.6287C25.5043 12.6287 25.5043 12.6291 25.5044 12.6292C25.5045 12.6296 25.5047 12.6301 25.5048 12.6306C25.5049 12.6308 25.505 12.631 25.505 12.631C25.5052 12.6316 25.5053 12.6321 25.5054 12.6325C25.5055 12.6328 25.5056 12.6331 25.5057 12.6333C25.5058 12.6337 25.5059 12.6341 25.5061 12.6345C25.5061 12.6347 25.5062 12.6351 25.5063 12.6353C25.5064 12.6357 25.5065 12.6361 25.5066 12.6364C25.5067 12.6367 25.5068 12.6371 25.507 12.6374C25.5071 12.6378 25.5071 12.638 25.5072 12.6384C25.5072 12.6384 25.5075 12.6391 25.5075 12.6395C25.5076 12.6398 25.5077 12.64 25.5078 12.6402C25.5079 12.6407 25.508 12.6411 25.5082 12.6416C25.5082 12.6416 25.5083 12.642 25.5084 12.6422C25.5085 12.6427 25.5086 12.6432 25.5088 12.6437C25.5089 12.6439 25.5089 12.644 25.5089 12.6441C25.5091 12.6447 25.5093 12.6453 25.5094 12.6458V12.6461C25.5271 12.7073 25.5354 12.7703 25.535 12.8331V27.3426C25.5348 27.7055 25.2402 28 24.8769 28ZM3.78079 26.6843H24.2191V14.1987L17.0356 19.9612V20.581C17.0356 20.9443 16.7411 21.2389 16.3778 21.2389H11.6223C11.259 21.2389 10.9645 20.9443 10.9645 20.581V19.8431L3.78088 14.1833V26.6843H3.78079ZM12.2801 19.9232H15.7199V18.7536H12.2801V19.9232ZM11.6223 17.4379H16.3777C16.741 17.4379 17.0355 17.7324 17.0355 18.0957V18.2745L23.0055 13.4854H21.3426C21.3354 13.4856 21.3279 13.4856 21.3205 13.4854H6.67957C6.67209 13.4856 6.66469 13.4856 6.65712 13.4854H5.02091L10.9644 18.1682V18.0957C10.9644 17.7325 11.259 17.4379 11.6223 17.4379ZM7.43346 12.1697H20.5665L20.2962 10.3996H7.70366L7.43346 12.1697ZM3.12295 10.6707C2.75966 10.6707 2.46511 10.3761 2.46511 10.0128V0.657841C2.46511 0.294548 2.75966 0 3.12295 0H6.74873C7.11202 0 7.40657 0.294548 7.40657 0.657841V2.16726H10.3742C10.7375 2.16726 11.0321 2.4618 11.0321 2.8251V4.02993H14C14.3633 4.02993 14.6579 4.32448 14.6579 4.68777V7.22227C14.6579 7.58556 14.3633 7.88011 14 7.88011C13.6367 7.88011 13.3422 7.58556 13.3422 7.22227V5.3457H11.0321V7.22227C11.0321 7.58556 10.7375 7.88011 10.3742 7.88011C10.011 7.88011 9.71641 7.58556 9.71641 7.22227V3.48294H7.40657V7.22227C7.40657 7.58556 7.11202 7.88011 6.74873 7.88011C6.38543 7.88011 6.09088 7.58556 6.09088 7.22227V1.31568H3.78079V10.0128C3.78079 10.3761 3.48625 10.6707 3.12295 10.6707Z" fill="white"/>
</svg>
