<svg width="26" height="24" viewBox="0 0 26 24" fill="none" xmlns="http://www.w3.org/2000/svg">
<g clip-path="url(#clip0)">
<path d="M25.5 14C25.3 13.6 21.8 3.9 21.8 3.9C21.8 3.9 21.8 3.8 21.7 3.8C21.7 3.8 21.7 3.7 21.6 3.7L21.5 3.6C21.5 3.6 21.4 3.6 21.4 3.5C21.4 3.5 21.3 3.5 21.3 3.4H21.2H21.1H13.5V0.8C13.5 0.4 13.2 0 12.7 0C12.2 0 12 0.3 12 0.8V3.5H4.4H4.3H4.2C4.2 3.5 4.1 3.5 4.1 3.6C4.1 3.6 4 3.6 4 3.7L3.9 3.8L3.8 3.9C3.8 3.9 3.8 4 3.7 4L0 14C0 14 0 14.1 0 14.3C0 14.5 0.1 14.7 0.2 14.8C1 15.9 2.6 16.7 4.5 16.7C6.4 16.7 8.1 15.9 8.8 14.7C8.9 14.5 8.9 14.3 8.9 14.1C8.8 13.8 6.5 7.5 5.6 5H12V22.2H6.1C5.7 22.2 5.3 22.5 5.3 23C5.3 23.5 5.6 23.8 6.1 23.8H12.8H19.5C19.9 23.8 20.3 23.5 20.3 23C20.3 22.5 20 22.2 19.5 22.2H13.6V4.9H20L16.7 13.9C16.6 14 16.6 14.1 16.6 14.3C16.6 14.5 16.7 14.7 16.8 14.8C17.6 15.9 19.2 16.7 21.1 16.7C23 16.7 24.7 15.9 25.4 14.7C25.5 14.5 25.5 14.2 25.5 14ZM4.4 15.1C3.2 15.1 2.1 14.7 1.6 14.1L4.5 6.3C5.4 8.7 6.9 12.8 7.3 14.1C6.7 14.7 5.6 15.1 4.4 15.1ZM21.1 15.1C19.9 15.1 18.8 14.7 18.3 14.1L21.1 6.3C22 8.7 23.5 12.8 23.9 14.1C23.4 14.7 22.2 15.1 21.1 15.1Z" fill="#D49F40"/>
</g>
<defs>
<clipPath id="clip0">
<rect width="25.5" height="23.6" fill="white"/>
</clipPath>
</defs>
</svg>
