<svg width="17" height="26" viewBox="0 0 17 26" fill="none" xmlns="http://www.w3.org/2000/svg">
<g clip-path="url(#clip0)">
<path d="M15.8 11.7001C16.2 11.7001 16.6 11.4001 16.6 10.9001V8.40013C16.6 8.00013 16.3 7.60013 15.8 7.60013H7.8C7.7 6.50013 7.8 4.90013 8.7 4.20013C8.9 4.10013 9 3.90013 9 3.70013L10.8 2.10013C11.1 1.80013 11.1 1.40013 10.9 1.00013C10.6 0.70013 10.1 0.70013 9.8 0.90013L7.5 2.90013C7.4 3.20013 7.3 3.30013 7.3 3.50013C6.2 4.70013 6.2 6.50013 6.3 7.60013H0.8C0.3 7.60013 0 8.00013 0 8.40013V11.0001C0 11.4001 0.3 11.8001 0.8 11.8001H1.9V21.6001H0.8C0.3 21.5001 0 21.8001 0 22.2001V24.8001C0 25.2001 0.3 25.6001 0.8 25.6001H15.8C16.2 25.6001 16.6 25.3001 16.6 24.8001V22.2001C16.6 21.8001 16.3 21.4001 15.8 21.4001H14.7V11.6001H15.8V11.7001ZM1.5 9.10013H15V10.2001H13.9H2.6H1.5V9.10013ZM15 24.1001H1.5V23.0001H2.6H13.9H15V24.1001ZM13.2 21.5001H3.4V11.7001H13.2V21.5001V21.5001Z" fill="#D49F40"/>
</g>
<defs>
<clipPath id="clip0">
<rect width="16.5" height="24.8" fill="white" transform="translate(0 0.800293)"/>
</clipPath>
</defs>
</svg>
