<svg width="27" height="22" viewBox="0 0 27 22" fill="none" xmlns="http://www.w3.org/2000/svg">
<g clip-path="url(#clip0)">
<path d="M26.3 4.00004C25.8 2.70004 24.8 1.70004 23.5 1.20004C21.8 0.500043 19.9 0.800043 18.4 1.80004L15.8 0.700043C15.4 0.500043 15 0.700043 14.8 1.10004L14.3 2.40004C7.3 1.70004 4.9 6.80004 4.3 8.50004H3.2C2.8 8.50004 2.4 8.80004 2.4 9.30004V12C1 12.9 0 14.6 0 16.4C0 19.3 2.3 21.6 5.2 21.6C8.1 21.6 10.4 19.3 10.4 16.4C10.4 14.5 9.4 12.9 7.9 12V9.30004C7.9 8.90004 7.6 8.50004 7.1 8.50004H6C6.7 6.80004 8.7 3.60004 13.8 3.90004L13.4 4.80004C13.3 5.00004 13.3 5.20004 13.4 5.40004C13.5 5.60004 13.6 5.70004 13.8 5.80004L16.4 6.90004C16.5 7.30004 16.6 7.70004 16.7 8.10004C17.2 9.40004 18.2 10.4 19.5 10.9C20.2 11.2 20.8 11.3 21.5 11.3C23.5 11.3 25.5 10.1 26.3 8.10004C26.8 6.70004 26.8 5.30004 26.3 4.00004ZM8.9 16.4C8.9 18.4 7.2 20.1 5.2 20.1C3.2 20.1 1.5 18.4 1.5 16.4C1.5 14.4 3.2 12.7 5.2 12.7C7.2 12.7 8.9 14.4 8.9 16.4ZM6.4 11.4C6 11.3 5.6 11.2 5.2 11.2C4.8 11.2 4.4 11.3 4 11.4V10H6.4V11.4ZM16 2.40004L17.3 2.90004C17.1 3.20004 16.9 3.60004 16.7 3.90004C16.5 4.30004 16.4 4.70004 16.4 5.10004L15.1 4.70004L16 2.40004ZM24.9 7.40004C24.1 9.30004 21.9 10.2 20 9.40004C19.1 9.00004 18.4 8.30004 18 7.40004C17.6 6.50004 17.6 5.50004 18 4.60004C18.6 3.20004 20 2.30004 21.4 2.30004C21.9 2.30004 22.4 2.40004 22.8 2.60004C23.7 3.00004 24.4 3.70004 24.8 4.60004C25.3 5.50004 25.3 6.50004 24.9 7.40004Z" fill="#D49F40"/>
</g>
<defs>
<clipPath id="clip0">
<rect width="26.7" height="20.9" fill="white" transform="translate(0 0.700195)"/>
</clipPath>
</defs>
</svg>
