<svg width="26" height="34" viewBox="0 0 26 34" fill="none" xmlns="http://www.w3.org/2000/svg">
<g clip-path="url(#clip0)">
<path d="M24.2 28.8002H22.6L20.2 25.5002C20.1 25.3002 19.8 25.2002 19.6 25.2002H5.4C5.2 25.2002 4.9 25.3002 4.8 25.5002L2.4 28.8002H0.8C0.4 28.8002 0 29.1002 0 29.6002V33.0002C0 33.3002 0.3 33.7002 0.8 33.7002H24.2C24.6 33.7002 25 33.4002 25 32.9002V29.5002C24.9 29.1002 24.6 28.8002 24.2 28.8002ZM5.8 26.7002H19.2L20.6 28.6002H4.4L5.8 26.7002ZM23.4 32.2002H1.5V30.3002H23.4V32.2002Z" fill="#D49F40"/>
<path d="M25.3 3.30038L23.4 1.00038C23.1 0.700377 22.7 0.600377 22.3 0.900377L12.1 9.40038L10.5 7.40038L8 4.40038C7.6 4.10038 7.2 4.00038 6.8 4.30038L0.3 9.70038C0.1 9.80038 0 10.0004 0 10.2004C0 10.4004 0 10.6004 0.2 10.7004L10.9 23.7004C11 23.9004 11.3 24.0004 11.5 24.0004C11.7 24.0004 11.8 23.9004 12 23.8004L18.6 18.4004C18.8 18.3004 18.9 18.1004 18.9 17.9004C18.9 17.7004 18.9 17.5004 18.7 17.4004L16.2 14.5004C16.2 14.5004 16.2 14.4004 16.1 14.4004C16.1 14.4004 16 14.4004 16 14.3004L15 12.9004L25.3 4.40038C25.5 4.30038 25.6 4.10038 25.6 3.90038C25.5 3.70038 25.5 3.50038 25.3 3.30038ZM4.4 13.4004L9.8 8.90038L11.4 10.9004L13.3 13.2004L14.4 14.6004L9 19.1004L4.4 13.4004ZM7.2 5.90038L8.8 7.80038L3.4 12.3004L1.8 10.4004L7.2 5.90038ZM11.6 22.1004L10 20.2004L15.4 15.7004L17 17.6004L11.6 22.1004ZM14 11.7004L13 10.5004L22.7 2.50038L23.7 3.70038L14 11.7004Z" fill="#D49F40"/>
</g>
<defs>
<clipPath id="clip0">
<rect width="25.5" height="33" fill="white" transform="translate(0 0.700195)"/>
</clipPath>
</defs>
</svg>
