<svg width="16" height="29" viewBox="0 0 16 29" fill="none" xmlns="http://www.w3.org/2000/svg">
<g clip-path="url(#clip0)">
<path d="M14.8 16.5001C14.8 16.5001 11.6 13.4001 11.6 9.9001V1.4001C11.6 1.0001 11.3 0.600098 10.8 0.600098H4.1C3.7 0.600098 3.4 0.900098 3.4 1.4001V9.9001C3.4 13.4001 0.3 16.4001 0.2 16.5001C0.1 16.6001 0 16.8001 0 17.1001C0 17.4001 0.1 17.5001 0.3 17.7001C5.6 21.1001 6.7 27.3001 6.8 27.5001C6.9 27.9001 7.2 28.1001 7.5 28.1001C7.8 28.1001 8.2 27.8001 8.2 27.5001C8.2 27.3001 9.3 21.1001 14.7 17.7001C14.9 17.6001 15 17.4001 15 17.1001C15.1 16.8001 15 16.6001 14.8 16.5001ZM10.2 2.1001V9.1001H4.9V2.1001H10.2ZM8.3 22.8001V14.9001C8.3 14.5001 8 14.1001 7.6 14.1001C7.2 14.1001 6.8 14.4001 6.8 14.9001V22.8001C5.8 20.9001 4.3 18.6001 1.9 16.9001C2.9 15.8001 4.6 13.4001 4.9 10.7001H10.3C10.6 13.5001 12.3 15.8001 13.3 16.9001C10.8 18.6001 9.2 20.9001 8.3 22.8001Z" fill="#D49F40"/>
</g>
<defs>
<clipPath id="clip0">
<rect width="15.1" height="27.5" fill="white" transform="translate(0 0.600098)"/>
</clipPath>
</defs>
</svg>
