<svg width="26" height="22" viewBox="0 0 26 22" fill="none" xmlns="http://www.w3.org/2000/svg">
<g clip-path="url(#clip0)">
<path d="M25.1 6.1L13.1 0.7C12.9 0.6 12.7 0.6 12.5 0.7L0.5 6.1C0.2 6.2 0 6.5 0 6.8C0 7.1 0.2 7.4 0.4 7.5L2.7 8.5V21.1C2.7 21.5 3 21.9 3.5 21.9C4 21.9 4.3 21.6 4.3 21.1V15.8L12.5 19.5C12.6 19.5 12.6 19.5 12.7 19.5H12.8H12.9C13 19.5 13.1 19.5 13.1 19.5L21.6 15.7C21.9 15.6 22 15.3 22 15V8.9L25.1 7.5C25.4 7.4 25.5 7.1 25.5 6.8C25.5 6.5 25.3 6.2 25.1 6.1ZM4.2 14.3V9.2L12 12.7V17.7L4.6 14.3C4.5 14.3 4.3 14.3 4.2 14.3ZM20.5 14.5L13.5 17.7V12.7L20.5 9.5V14.5ZM12.8 11.4L2.6 6.8L12.8 2.2L23 6.8L12.8 11.4Z" fill="#D49F40"/>
</g>
<defs>
<clipPath id="clip0">
<rect width="25.5" height="21.2" fill="white" transform="translate(0 0.600098)"/>
</clipPath>
</defs>
</svg>
