<svg width="26" height="24" viewBox="0 0 26 24" fill="none" xmlns="http://www.w3.org/2000/svg">
<g clip-path="url(#clip0)">
<path d="M24.8001 19.7H22.8001V8.7H24.8001C25.1001 8.7 25.4001 8.5 25.5001 8.1C25.6001 7.8 25.4001 7.4 25.1001 7.3L13.1001 0.7C12.9001 0.6 12.6001 0.6 12.4001 0.7L0.400134 7.3C0.100134 7.5 -0.0998659 7.8 0.000134053 8.1C0.100134 8.4 0.400134 8.7 0.700134 8.7H2.50013V19.6H0.800134C0.400134 19.6 0.000134053 19.9 0.000134053 20.4V23C0.000134053 23.4 0.300134 23.8 0.800134 23.8H24.8001C25.2001 23.8 25.6001 23.5 25.6001 23V20.4C25.5001 20 25.2001 19.7 24.8001 19.7ZM21.2001 19.7H20.0001V8.7H21.3001V19.7H21.2001ZM10.5001 8.7V19.6H6.80013V8.7H10.5001ZM12.0001 8.7H13.3001V19.6H12.0001V8.7ZM14.8001 8.7H18.5001V19.6H14.8001V8.7ZM12.8001 2.2L21.9001 7.2H3.70013L12.8001 2.2ZM4.00013 8.7H5.30013V19.6H4.00013V8.7ZM24.0001 22.2H1.50013V21.1H24.0001V22.2Z" fill="#D49F40"/>
</g>
<defs>
<clipPath id="clip0">
<rect width="25.5" height="23.1" fill="white" transform="translate(0 0.600098)"/>
</clipPath>
</defs>
</svg>
