<svg width="40" height="41" viewBox="0 0 40 41" fill="none" xmlns="http://www.w3.org/2000/svg">
<g clip-path="url(#clip0)">
<path d="M16.4 32.8C7.4 32.8 0 25.5 0 16.4C0 7.3 7.4 0 16.4 0C25.4 0 32.8 7.4 32.8 16.4C32.8 25.4 25.5 32.8 16.4 32.8ZM16.4 3.5C9.3 3.5 3.5 9.3 3.5 16.4C3.5 23.5 9.3 29.3 16.4 29.3C23.5 29.3 29.3 23.5 29.3 16.4C29.3 9.3 23.5 3.5 16.4 3.5Z" fill="white"/>
<path d="M30.9348 29.262L28.46 31.7368L37.228 40.5049L39.7028 38.03L30.9348 29.262Z" fill="white"/>
</g>
<defs>
<clipPath id="clip0">
<rect width="39.7" height="40.5" fill="white"/>
</clipPath>
</defs>
</svg>
