<?xml version="1.0" encoding="utf-8"?><svg xmlns="http://www.w3.org/2000/svg" xmlns:xlink="http://www.w3.org/1999/xlink"><symbol viewBox="0 0 21 8" id="arr" xmlns="http://www.w3.org/2000/svg"><path d="M20.354 4.354a.5.5 0 000-.708L17.172.464a.5.5 0 10-.707.708L19.293 4l-2.828 2.828a.5.5 0 10.707.708l3.182-3.182zM0 4.5h20v-1H0v1z"/></symbol><symbol viewBox="0 0 77 8" id="arr-next" xmlns="http://www.w3.org/2000/svg"><path d="M76.354 4.354a.5.5 0 000-.708L73.172.464a.5.5 0 10-.707.708L75.293 4l-2.829 2.828a.5.5 0 10.708.708l3.182-3.182zM0 4.5h76v-1H0v1z"/></symbol><symbol viewBox="0 0 67 8" id="arr-prev" xmlns="http://www.w3.org/2000/svg"><path d="M.646 3.646a.5.5 0 000 .708l3.182 3.182a.5.5 0 10.708-.708L1.707 4l2.829-2.828a.5.5 0 10-.708-.708L.646 3.646zM67 3.5H1v1h66v-1z"/></symbol><symbol viewBox="0 0 22 18" id="email" xmlns="http://www.w3.org/2000/svg"><path fill-rule="evenodd" clip-rule="evenodd" d="M2 0h18a2 2 0 012 2v14a2 2 0 01-2 2H2a2 2 0 01-2-2V2a2 2 0 012-2zm0 6.618V16h18V6.619l-9 4.5-9-4.5zm0-2.236l9 4.5 9-4.5V2H2v2.382z"/></symbol><symbol viewBox="0 0 96.124 96.123" id="fb" xmlns="http://www.w3.org/2000/svg"><path d="M72.089.02L59.624 0C45.62 0 36.57 9.285 36.57 23.656v10.907H24.037a1.96 1.96 0 00-1.96 1.961v15.803a1.96 1.96 0 001.96 1.96H36.57v39.876a1.96 1.96 0 001.96 1.96h16.352a1.96 1.96 0 001.96-1.96V54.287h14.654a1.96 1.96 0 001.96-1.96l.006-15.803a1.963 1.963 0 00-1.961-1.961H56.842v-9.246c0-4.444 1.059-6.7 6.848-6.7l8.397-.003a1.96 1.96 0 001.959-1.96V1.98A1.96 1.96 0 0072.089.02z"/></symbol><symbol viewBox="0 0 35 35" id="ffb" xmlns="http://www.w3.org/2000/svg"><path fill-rule="evenodd" clip-rule="evenodd" d="M17.5 35C27.165 35 35 27.165 35 17.5S27.165 0 17.5 0 0 7.835 0 17.5 7.835 35 17.5 35zm0-2.1c8.505 0 15.4-6.895 15.4-15.4S26.005 2.1 17.5 2.1 2.1 8.995 2.1 17.5s6.895 15.4 15.4 15.4zm1.27-7.7v-7.7h2.278l.302-2.655h-2.58l.004-1.328c0-.692.07-1.063 1.136-1.063h1.424V9.8h-2.278c-2.737 0-3.7 1.287-3.7 3.452v1.594H13.65v2.653h1.706V25.2h3.414z" fill-opacity=".8"/></symbol><symbol viewBox="0 0 35 35" id="finst" xmlns="http://www.w3.org/2000/svg"><circle cx="17.5" cy="17.5" r="16.5"/><path d="M20.94 10h-6.88A4.065 4.065 0 0010 14.06v6.88A4.065 4.065 0 0014.06 25h6.88A4.065 4.065 0 0025 20.94v-6.88A4.065 4.065 0 0020.94 10zM17.5 21.601a4.106 4.106 0 01-4.101-4.101 4.106 4.106 0 014.101-4.101 4.106 4.106 0 014.101 4.101 4.106 4.106 0 01-4.101 4.101zm4.2-7.235a1.213 1.213 0 010-2.424 1.213 1.213 0 010 2.424z" fill-opacity=".8"/><path d="M17.5 15a2.503 2.503 0 00-2.5 2.5c0 1.378 1.122 2.5 2.5 2.5s2.5-1.122 2.5-2.5-1.122-2.5-2.5-2.5zm4.2-2.179a.333.333 0 100 .666.333.333 0 000-.666z" fill-opacity=".8"/></symbol><symbol viewBox="0 0 35 35" id="fvk" xmlns="http://www.w3.org/2000/svg"><path d="M6.575 14.174c.234.609.521 1.196.818 1.776.705 1.377 1.43 2.715 2.404 3.926.983 1.223 2.145 2.409 3.513 3.2.38.22.78.406 1.197.547 1.607.545 3.37.493 3.915.13.544-.363-.104-2.748.389-3.034.492-.285 1.374.337 2.022.908.648.57 1.14 1.063 1.504 1.452.227.243.387.534.683.708.49.287 1.144.255 1.69.257.305 0 .61.002.915-.002.206-.003.412.004.618-.006.338-.017.78-.15.756-.573a.99.99 0 00-.068-.313 2.937 2.937 0 00-.336-.577c-.674-.9-1.121-1.361-1.458-1.724-.337-.363-1.724-1.672-1.815-1.932-.09-.259-.12-.374.138-.724.257-.35.821-1.233 1.262-1.868.277-.399.528-.815.776-1.232a15 15 0 00.802-1.515c.105-.233.2-.445.135-.707-.043-.175-.142-.328-.325-.372a1.38 1.38 0 00-.312-.026h-1.38l-.542-.002c-.185 0-.372-.001-.556.015-.262.022-.423.225-.555.429-.162.25-.309.51-.465.762-.108.173-.212.347-.315.522-.161.274-.327.545-.493.816l-.205.337c-.195.324-1.88 2.541-2.217 2.632-.337.09-.454.065-.454-.622v-4.59s-.026-.3-.31-.3h-4.337s-.642.002-.415.58c.227.576.898.751.898 1.714v3.772s-.114.846-.846.146c-.577-.552-1.053-1.204-1.473-1.88a14.623 14.623 0 01-1.102-2.199c-.09-.219-.179-.438-.271-.656a42.994 42.994 0 01-.284-.684c-.107-.266-.221-.614-.51-.736-.145-.062-.305-.059-.46-.059-.574 0-1.147.002-1.721 0H7.28c-.397.002-.892-.01-.986.487-.054.285.054.59.144.859.041.121.092.238.137.358z" fill-opacity=".8"/><circle cx="17.5" cy="17.5" r="16.5"/></symbol><symbol viewBox="0 0 35 35" id="fyt" xmlns="http://www.w3.org/2000/svg"><path fill-rule="evenodd" clip-rule="evenodd" d="M35 17.5C35 7.835 27.165 0 17.5 0S0 7.835 0 17.5 7.835 35 17.5 35 35 27.165 35 17.5zm-2.1 0c0-8.505-6.895-15.4-15.4-15.4S2.1 8.995 2.1 17.5s6.895 15.4 15.4 15.4 15.4-6.895 15.4-15.4zm-7.162 4.036c-.21.908-.952 1.577-1.846 1.677-2.117.237-4.26.238-6.393.237-2.133.001-4.276 0-6.393-.237-.894-.1-1.637-.77-1.845-1.677-.298-1.293-.298-2.705-.298-4.036 0-1.331.004-2.743.3-4.036.21-.908.952-1.578 1.846-1.677 2.117-.237 4.26-.238 6.393-.237 2.134-.001 4.277 0 6.394.237.894.1 1.636.77 1.845 1.677.297 1.293.296 2.705.296 4.036 0 1.331-.002 2.743-.3 4.036zm-9.775-7.186l4.725 2.728-4.725 2.728V14.35z" fill-opacity=".8"/></symbol><symbol viewBox="0 0 19 19" id="inst" xmlns="http://www.w3.org/2000/svg"><path fill-opacity=".8" d="M13.73.29a4.994 4.994 0 014.989 4.988v8.452a4.994 4.994 0 01-4.989 4.988H5.278A4.994 4.994 0 01.29 13.73V5.278A4.994 4.994 0 015.278.29zm.813 9.214a5.045 5.045 0 00-5.039-5.039 5.045 5.045 0 00-5.039 5.04 5.045 5.045 0 005.04 5.038 5.045 5.045 0 005.038-5.039zm1.61-5.34a1.49 1.49 0 00-1.49-1.488 1.49 1.49 0 00-1.488 1.489 1.49 1.49 0 001.489 1.489 1.49 1.49 0 001.489-1.49z"/></symbol><symbol viewBox="0 0 72 9" id="line" xmlns="http://www.w3.org/2000/svg"><path d="M0 7h70m-.224.447L60.5 1"/></symbol><symbol viewBox="0 0 22 19" id="load" xmlns="http://www.w3.org/2000/svg"><path d="M21.044 1.9a.953.953 0 00-.957.95v3.665l-3.758-3.733A9.568 9.568 0 009.565 0C4.283 0 0 4.253 0 9.5S4.283 19 9.565 19c4.628 0 8.487-3.264 9.374-7.6h-1.963a7.646 7.646 0 01-7.41 5.7c-4.227 0-7.653-3.403-7.653-7.6 0-4.197 3.426-7.6 7.652-7.6 2.114 0 4.028.851 5.413 2.228L18.474 7.6h-3.17a.953.953 0 00-.956.95c0 .525.428.95.956.95h5.74A.953.953 0 0022 8.55v-5.7a.953.953 0 00-.956-.95z"/></symbol><symbol viewBox="0 0 119 116" id="logo1" xmlns="http://www.w3.org/2000/svg"><path d="M3.658.003S21.41 4.88 31.238 30.251L42.364 55.09l27.81 60.115 11.733-25.067s3.58-7.39-3.657-21.638L51.734 11.204S48.23-.227 36.496.003H3.658zM106.82 88.995c6.27 0 11.353-5.083 11.353-11.353S113.09 66.29 106.82 66.29s-11.352 5.082-11.352 11.352c0 6.27 5.082 11.353 11.352 11.353zm-87.925-8.686S13.257 113.909 0 114.29h37.715s-17.677-2.362-12.953-21.715L18.895 80.31z"/></symbol><symbol viewBox="0 0 111 15" id="logo2" xmlns="http://www.w3.org/2000/svg"><path d="M6.166 11.238l-3.34-5.9-.48-1.22h-.08l.18 1.24v9.1h-2.3V.258h2.28l4.36 7.66.24.66h.08l.24-.66 4.36-7.66h2.28v14.2h-2.3v-9.1l.18-1.24h-.08l-.48 1.22-3.34 5.9h-1.8zm19.74-.16h-4.76l-1.22 3.78-2.14-.68 4.46-13.92h2.56l4.46 13.92-2.14.68-1.22-3.78zm-2.64-6.66l-1.46 4.56h3.44l-1.46-4.56-.22-1.36h-.08l-.22 1.36zm13.53-2.06v12.1h-2.3v-12.1h-4.04v-2.1h10.38v2.1h-4.04zm16.2 4.7l1.74 1.36v3.72l-2.32 2.32h-7.78V.258h7.76l1.92 1.92v3.84l-1.32 1.04zm-.56 2.08l-1.32-1.02h-4.18v4.24h4.5l1-1v-2.22zm-5.5-6.78v3.66h4.28l.8-.62v-2.42l-.62-.62h-4.46zm12.4 12.1V.258h9.06v2.1h-6.76v3.64h5.92v2.1h-5.92v4.26h6.76v2.1h-9.06zm13.255 0V.258h9.06v2.1h-6.76v3.64h5.92v2.1h-5.92v4.26h6.76v2.1h-9.06zm21.615-7.4l1.74 1.36v3.72l-2.32 2.32h-7.78V.258h7.76l1.92 1.92v3.84l-1.32 1.04zm-.56 2.08l-1.32-1.02h-4.18v4.24h4.5l1-1v-2.22zm-5.5-6.78v3.66h4.28l.8-.62v-2.42l-.62-.62h-4.46zm19.32 8.72h-4.76l-1.22 3.78-2.14-.68 4.46-13.92h2.56l4.46 13.92-2.14.68-1.22-3.78zm-2.64-6.66l-1.46 4.56h3.44l-1.46-4.56-.22-1.36h-.08l-.22 1.36z"/></symbol><symbol viewBox="0 0 132 15" id="logo3" xmlns="http://www.w3.org/2000/svg"><path d="M9.146 1.322l-7.9 13.32h-.9v-14h.6v13.32l7.9-13.32h.9v14h-.6V1.322zm14.794-.08v13.4h-.6v-14h9.38v14h-.6v-13.4h-8.18zm15.078 8.8l-1.54 4.7-.56-.2 4.58-13.9h1.2l4.58 13.9-.56.2-1.54-4.7h-6.16zm.2-.6h5.76l-2.7-8.2h-.36l-2.7 8.2zm12.852-.66v5.86h-.6v-14h7.52l1.86 1.84v4.46l-1.86 1.84h-6.92zm6.68-7.54h-6.68v6.94h6.68l1.52-1.5v-3.94l-1.52-1.5zm10.202 0v13.4h-.6v-13.4h-4.7v-.6h10v.6h-4.7zm17.28 5.68V.642h.6v14h-.6v-7.12h-8.18v7.12h-.6v-14h.6v6.28h8.18zm5.999 7.72v-14h8.539v.6h-7.94v5.7h7.1v.6h-7.1v6.5h7.94v.6h-8.54zm13.346-5.86v5.86h-.6v-14h7.52l1.86 1.84v4.46l-1.86 1.84h-6.92zm6.68-7.54h-6.68v6.94h6.68l1.52-1.5v-3.94l-1.52-1.5zm18.538 13.4v-14h.6v14h-.6zm-11.84 0v-14h.6v6.02h6.94l1.84 1.88v4.22l-1.84 1.88h-7.54zm8.78-5.84l-1.5-1.54h-6.68v6.78h6.68l1.5-1.54v-3.7z"/></symbol><symbol viewBox="0 0 40 25" id="menu" xmlns="http://www.w3.org/2000/svg"><path d="M0 0h40v5H0zm0 10h31v5H0zm0 10h21.277v5H0z"/></symbol><symbol viewBox="0 0 30 50" id="next" xmlns="http://www.w3.org/2000/svg"><path fill-rule="evenodd" clip-rule="evenodd" d="M6 49.502l-6-6.188 18-18.563L0 6.188 6 0l24 24.751L6 49.502z"/></symbol><symbol viewBox="0 0 21 20" id="phone" xmlns="http://www.w3.org/2000/svg"><path fill-rule="evenodd" clip-rule="evenodd" d="M9.857 6.338c.518-.698.703-1.434.117-2.084C8.66 2.414 7.775 1.276 7.22.73 6.166-.313 4.431-.172 3.518.728c-.49.483-.657.649-1.16 1.16C-.449 4.697 1.262 10.63 5.81 15.184c4.548 4.552 10.482 6.264 13.293 3.45.465-.447.858-.841 1.169-1.169.895-.946 1.03-2.604-.006-3.682-.532-.552-1.617-1.393-3.534-2.765-.587-.525-1.284-.411-1.922.007-.307.202-.53.406-.953.828l-.766.767c-.1.1-1.471-.586-2.801-1.917C8.96 9.37 8.274 7.999 8.374 7.899l.767-.768c.134-.134.198-.198.28-.285.171-.18.313-.343.436-.508zm4.649 7.695l.766-.767c.232-.232.383-.375.505-.474 1.68 1.206 2.653 1.965 3.05 2.378.239.248.202.7-.006.919-.287.303-.66.677-1.117 1.118-1.818 1.819-6.608.437-10.479-3.438C3.353 9.893 1.972 5.103 3.776 3.297c.502-.509.66-.668 1.144-1.144.182-.179.676-.22.896-.001.427.422 1.22 1.436 2.385 3.06-.06.074-.136.159-.228.255a9.633 9.633 0 01-.246.25l-.766.767c-1.303 1.303-.193 3.52 1.916 5.632 2.107 2.11 4.326 3.22 5.629 1.917z"/></symbol><symbol viewBox="0 0 18 23" id="pin" xmlns="http://www.w3.org/2000/svg"><path fill-rule="evenodd" clip-rule="evenodd" d="M9 22.328l.658-.575C15.188 16.923 18 12.707 18 9c0-5.25-4.097-9-9-9S0 3.75 0 9c0 3.707 2.811 7.924 8.342 12.753l.658.575zm0-2.665C4.307 15.433 2 11.85 2 9c0-4.103 3.164-7 7-7s7 2.897 7 7c0 2.85-2.307 6.434-7 10.663zM9 4a5 5 0 110 10A5 5 0 019 4zM6 9a3 3 0 116 0 3 3 0 01-6 0z"/></symbol><symbol viewBox="0 0 30 50" id="prev" xmlns="http://www.w3.org/2000/svg"><path fill-rule="evenodd" clip-rule="evenodd" d="M24 .03l6 6.188-18 18.563 18 18.563-6 6.188-24-24.75L24 .03z"/></symbol><symbol viewBox="0 0 40 41" id="search" xmlns="http://www.w3.org/2000/svg"><g clip-path="url(#uclip0)"><path d="M16.4 32.8C7.4 32.8 0 25.5 0 16.4 0 7.3 7.4 0 16.4 0c9 0 16.4 7.4 16.4 16.4 0 9-7.3 16.4-16.4 16.4zm0-29.3C9.3 3.5 3.5 9.3 3.5 16.4c0 7.1 5.8 12.9 12.9 12.9 7.1 0 12.9-5.8 12.9-12.9 0-7.1-5.8-12.9-12.9-12.9zm14.535 25.762l-2.475 2.475 8.768 8.768 2.475-2.475-8.768-8.768z"/></g><defs><clipPath id="uclip0"><path d="M0 0h39.7v40.5H0z"/></clipPath></defs></symbol><symbol viewBox="0 0 0 0" id="sprite" xmlns="http://www.w3.org/2000/svg"/><symbol viewBox="0 0 24 24" id="tel" xmlns="http://www.w3.org/2000/svg"><path d="M23.785 18.759c0 .301-.055.694-.167 1.18-.112.485-.229.868-.352 1.147-.234.558-.915 1.15-2.042 1.774-1.05.57-2.087.854-3.114.854-.301 0-.594-.02-.879-.059a7.217 7.217 0 01-.962-.209 13.57 13.57 0 01-.796-.243 66.524 66.524 0 01-.929-.343c-.446-.167-.72-.268-.82-.301a15.17 15.17 0 01-2.93-1.39c-1.428-.881-2.904-2.084-4.428-3.607-1.523-1.524-2.726-3-3.607-4.428a15.161 15.161 0 01-1.39-2.93c-.033-.1-.134-.374-.301-.82a65.953 65.953 0 01-.344-.93 13.648 13.648 0 01-.242-.795c-.1-.357-.17-.678-.21-.962a6.458 6.458 0 01-.058-.88c0-1.026.284-2.064.854-3.113C1.693 1.577 2.284.896 2.842.662c.28-.123.661-.24 1.147-.352.485-.112.879-.167 1.18-.167a.93.93 0 01.352.05c.2.067.496.49.887 1.272.123.212.29.514.502.904.212.39.408.745.586 1.063.179.318.352.617.52.896.033.044.13.184.292.418.162.235.282.433.36.595.078.162.117.32.117.477 0 .223-.159.502-.477.837a8.16 8.16 0 01-1.038.92c-.374.28-.72.575-1.038.888-.318.312-.477.57-.477.77 0 .1.028.226.084.377a3.8 3.8 0 00.142.343c.04.078.117.212.235.402.117.19.18.295.192.318.848 1.529 1.82 2.84 2.913 3.934 1.094 1.094 2.405 2.065 3.934 2.913.022.011.128.075.318.192s.324.196.402.235a3.8 3.8 0 00.343.142c.15.056.276.084.377.084.2 0 .457-.16.77-.477.313-.319.608-.665.887-1.038.28-.374.586-.72.921-1.038.335-.318.614-.477.837-.477.156 0 .315.039.477.117.162.078.36.198.595.36.234.162.373.26.418.293.279.167.578.34.896.519.318.178.672.373 1.063.586.39.212.692.379.904.502.781.39 1.205.686 1.272.887.034.078.05.195.05.352z"/></symbol><symbol viewBox="0 0 27 15" id="vk" xmlns="http://www.w3.org/2000/svg"><path fill-opacity=".8" d="M1.074 2.413c.286.748.64 1.47 1.004 2.182.866 1.692 1.758 3.336 2.954 4.823 1.208 1.503 2.635 2.96 4.315 3.932.468.27.96.499 1.471.672 1.975.67 4.141.605 4.81.16.669-.446-.127-3.377.478-3.727.605-.35 1.688.414 2.484 1.114a26.03 26.03 0 011.848 1.784c.28.3.476.657.84.87.602.353 1.404.314 2.076.316.375 0 .75.002 1.124-.003.253-.003.506.005.76-.007.415-.02.958-.184.927-.704a1.211 1.211 0 00-.084-.383 3.603 3.603 0 00-.411-.71c-.828-1.107-1.378-1.672-1.792-2.118-.414-.446-2.118-2.055-2.23-2.373-.111-.319-.147-.46.17-.89.316-.43 1.009-1.515 1.55-2.296.34-.49.648-1 .953-1.512.36-.604.698-1.221.986-1.862.129-.286.245-.547.166-.868-.054-.215-.175-.404-.4-.457a1.696 1.696 0 00-.383-.032h-1.696c-.222 0-.443-.003-.665-.003-.227 0-.457-.001-.683.018-.323.028-.52.276-.682.527-.199.307-.38.626-.572.937-.132.212-.26.426-.387.641-.197.337-.401.67-.605 1.002-.084.138-.169.276-.252.415-.24.398-2.31 3.121-2.724 3.233-.414.112-.557.08-.557-.765V.691s-.032-.37-.382-.37h-5.328s-.788.004-.51.713c.28.709 1.103.924 1.103 2.106v4.635s-.139 1.039-1.039.179c-.709-.678-1.293-1.479-1.81-2.31a17.962 17.962 0 01-1.354-2.701c-.11-.269-.219-.538-.332-.806a52.82 52.82 0 01-.348-.84C5.735.97 5.594.541 5.24.391 5.06.316 4.864.32 4.674.32c-.705 0-1.41.002-2.114 0h-.62C1.45.323.843.309.727.918c-.067.352.066.727.177 1.056.05.15.112.293.169.44z"/></symbol><symbol viewBox="-21 -117 682.667 682" id="yt" xmlns="http://www.w3.org/2000/svg"><path d="M626.813 64.035c-7.375-27.418-28.993-49.031-56.407-56.414C520.324-6.082 319.992-6.082 319.992-6.082s-200.324 0-250.406 13.184c-26.887 7.375-49.031 29.52-56.406 56.933C0 114.113 0 217.97 0 217.97s0 104.379 13.18 153.933c7.382 27.414 28.992 49.028 56.41 56.41C120.195 442.02 320 442.02 320 442.02s200.324 0 250.406-13.184c27.418-7.379 49.032-28.992 56.414-56.406 13.176-50.082 13.176-153.934 13.176-153.934s.527-104.383-13.183-154.46zM256.21 313.915V122.022l166.586 95.946zm0 0"/></symbol></svg>