<?xml version="1.0" encoding="utf-8"?><svg xmlns="http://www.w3.org/2000/svg" xmlns:xlink="http://www.w3.org/1999/xlink"><symbol viewBox="0 0 72 9" id="line" xmlns="http://www.w3.org/2000/svg"><path d="M0 7h70m-.224.447L60.5 1"/></symbol><symbol viewBox="0 0 22 19" id="load" xmlns="http://www.w3.org/2000/svg"><path d="M21.044 1.9a.953.953 0 00-.957.95v3.665l-3.758-3.733A9.568 9.568 0 009.565 0C4.283 0 0 4.253 0 9.5S4.283 19 9.565 19c4.628 0 8.487-3.264 9.374-7.6h-1.963a7.646 7.646 0 01-7.41 5.7c-4.227 0-7.653-3.403-7.653-7.6 0-4.197 3.426-7.6 7.652-7.6 2.114 0 4.028.851 5.413 2.228L18.474 7.6h-3.17a.953.953 0 00-.956.95c0 .525.428.95.956.95h5.74A.953.953 0 0022 8.55v-5.7a.953.953 0 00-.956-.95z"/></symbol><symbol viewBox="0 0 0 0" id="sprite" xmlns="http://www.w3.org/2000/svg"/></svg>