<?xml version="1.0" encoding="utf-8"?><svg xmlns="http://www.w3.org/2000/svg" xmlns:xlink="http://www.w3.org/1999/xlink"><symbol viewBox="0 0 124 124" id="accept" xmlns="http://www.w3.org/2000/svg"><path d="M62 109c25.957 0 47-21.043 47-47S87.957 15 62 15 15 36.043 15 62s21.043 47 47 47z"/><path d="M52.412 74.01L39.828 61.077l-4.194 4.312 16.778 17.246 35.953-36.957-4.194-4.311L52.412 74.01z"/><circle cx="62" cy="62" r="61.5"/></symbol><symbol viewBox="0 0 21 8" id="arr" xmlns="http://www.w3.org/2000/svg"><path d="M20.354 4.354a.5.5 0 000-.708L17.172.464a.5.5 0 10-.707.708L19.293 4l-2.828 2.828a.5.5 0 10.707.708l3.182-3.182zM0 4.5h20v-1H0v1z"/></symbol><symbol viewBox="0 0 77 8" id="arr-next" xmlns="http://www.w3.org/2000/svg"><path d="M76.354 4.354a.5.5 0 000-.708L73.172.464a.5.5 0 10-.707.708L75.293 4l-2.829 2.828a.5.5 0 10.708.708l3.182-3.182zM0 4.5h76v-1H0v1z"/></symbol><symbol viewBox="0 0 67 8" id="arr-prev" xmlns="http://www.w3.org/2000/svg"><path d="M.646 3.646a.5.5 0 000 .708l3.182 3.182a.5.5 0 10.708-.708L1.707 4l2.829-2.828a.5.5 0 10-.708-.708L.646 3.646zM67 3.5H1v1h66v-1z"/></symbol><symbol viewBox="0 0 89 86" id="asideEmail" xmlns="http://www.w3.org/2000/svg"><path d="M.551.292H89v85.399H.551z"/><path fill-rule="evenodd" clip-rule="evenodd" d="M.55.292H89v85.399H.55V.292zm80.962 85.41H8.038c-5.367 0-7.487-2.106-7.487-7.311v-41.5l1.525-3.05 14.579-10.37 2.378 1.916L4.41 35.888 44.775 64.43l40.366-28.545-14.624-10.501 2.379-1.915 14.579 10.373L89 36.892v41.5c0 5.203-2.135 7.31-7.488 7.31zM47.825 44.515a3.05 3.05 0 11-6.098 0 3.05 3.05 0 016.098 0zm5.002-21.822c-5.353 5.353-6.39 4.727-6.527 11.149a1.525 1.525 0 11-3.05 0c.015-6.71 1.83-8.33 7.26-13.237 2.348-2.23 4.925-5 4.955-8.314.046-6.336-5.215-8.997-10.126-9.03-6.206-.037-9.576 2.826-10.781 7.865a9.075 9.075 0 00-.458 2.89 1.525 1.525 0 01-3.034.052h-.03a11.187 11.187 0 01.93-4.64C33.855 3.835 38.583.314 45.521.314c7.092 0 12.963 4.395 12.963 11.786 0 4.778-2.395 7.534-5.658 10.591v.002zm32.787 57.05c-1.22-1.053-2.745-2.36-4.453-3.827l.046.047c.11-.304.167-.625.168-.948V42.339c1.769-1.275 3.34-2.41 4.575-3.296v39.023a4.402 4.402 0 01-.336 1.677v.002zM8.176 75.017c0 .323.057.643.167.947a2771.614 2771.614 0 00-4.407 3.78 4.401 4.401 0 01-.335-1.677v-39.03c1.235.883 2.806 2.013 4.575 3.284v32.696zm3.05 3.05h67.099c.148-.005.296-.02.442-.044l4.743 4.062c-.655.36-1.389.55-2.135.555h-73.2a4.492 4.492 0 01-2.134-.555l4.742-4.062c.147.024.294.039.443.044z"/><path opacity=".9" fill-rule="evenodd" clip-rule="evenodd" d="M81.207 75.963c-4.88-4.188-11.392-9.76-17.461-14.97l-2.684 1.889 17.705 15.14c-.146.024-.294.04-.442.044h-67.1a3.331 3.331 0 01-.442-.044l17.705-15.14-2.684-1.89c-6.069 5.21-12.58 10.783-17.46 14.971a2.806 2.806 0 01-.168-.947V42.321c9.363 6.71 24.902 17.842 32.085 22.822.309.209.604.437.885.682a5.007 5.007 0 003.629 1.566 5.185 5.185 0 003.66-1.584c.274-.226.625-.528.976-.763 7.274-4.974 22.676-16.012 31.963-22.696v32.668a2.806 2.806 0 01-.167.947z"/><defs><linearGradient id="aepaint0_linear" x1="-6.85" y1=".292" x2="94.344" y2="99.412" gradientUnits="userSpaceOnUse"><stop stop-color="#D4B172"/><stop offset=".18" stop-color="#F3C168"/><stop offset=".786" stop-color="#DEB66F"/><stop offset="1" stop-color="#D4B172"/></linearGradient></defs></symbol><symbol viewBox="0 0 26 18" id="close" xmlns="http://www.w3.org/2000/svg"><path d="M24.875 7.875H3.843l5.018-5.02a1.125 1.125 0 10-1.591-1.59L.33 8.204a1.123 1.123 0 000 1.59l6.94 6.941a1.121 1.121 0 001.591 0c.44-.44.44-1.152 0-1.591l-5.019-5.02h21.033a1.126 1.126 0 000-2.25z"/></symbol><symbol viewBox="0 0 18 18" id="close-form" xmlns="http://www.w3.org/2000/svg"><path d="M17.75 2.019L15.981.25 9 7.231 2.019.25.25 2.019 7.231 9 .25 15.981l1.769 1.769L9 10.769l6.981 6.981 1.769-1.769L10.769 9l6.981-6.981z"/></symbol><symbol viewBox="0 0 22 18" id="email" xmlns="http://www.w3.org/2000/svg"><path fill-rule="evenodd" clip-rule="evenodd" d="M2 0h18a2 2 0 012 2v14a2 2 0 01-2 2H2a2 2 0 01-2-2V2a2 2 0 012-2zm0 6.618V16h18V6.619l-9 4.5-9-4.5zm0-2.236l9 4.5 9-4.5V2H2v2.382z"/></symbol><symbol viewBox="0 0 20 20" id="error" xmlns="http://www.w3.org/2000/svg"><path d="M6 14l8-8M6 6l8 8"/></symbol><symbol viewBox="0 0 96.124 96.123" id="fb" xmlns="http://www.w3.org/2000/svg"><path d="M72.089.02L59.624 0C45.62 0 36.57 9.285 36.57 23.656v10.907H24.037a1.96 1.96 0 00-1.96 1.961v15.803a1.96 1.96 0 001.96 1.96H36.57v39.876a1.96 1.96 0 001.96 1.96h16.352a1.96 1.96 0 001.96-1.96V54.287h14.654a1.96 1.96 0 001.96-1.96l.006-15.803a1.963 1.963 0 00-1.961-1.961H56.842v-9.246c0-4.444 1.059-6.7 6.848-6.7l8.397-.003a1.96 1.96 0 001.959-1.96V1.98A1.96 1.96 0 0072.089.02z"/></symbol><symbol viewBox="0 0 35 35" id="ffb" xmlns="http://www.w3.org/2000/svg"><path fill-rule="evenodd" clip-rule="evenodd" d="M17.5 35C27.165 35 35 27.165 35 17.5S27.165 0 17.5 0 0 7.835 0 17.5 7.835 35 17.5 35zm0-2.1c8.505 0 15.4-6.895 15.4-15.4S26.005 2.1 17.5 2.1 2.1 8.995 2.1 17.5s6.895 15.4 15.4 15.4zm1.27-7.7v-7.7h2.278l.302-2.655h-2.58l.004-1.328c0-.692.07-1.063 1.136-1.063h1.424V9.8h-2.278c-2.737 0-3.7 1.287-3.7 3.452v1.594H13.65v2.653h1.706V25.2h3.414z" fill-opacity=".8"/></symbol><symbol viewBox="0 0 35 35" id="finst" xmlns="http://www.w3.org/2000/svg"><circle cx="17.5" cy="17.5" r="16.5"/><path d="M20.94 10h-6.88A4.065 4.065 0 0010 14.06v6.88A4.065 4.065 0 0014.06 25h6.88A4.065 4.065 0 0025 20.94v-6.88A4.065 4.065 0 0020.94 10zM17.5 21.601a4.106 4.106 0 01-4.101-4.101 4.106 4.106 0 014.101-4.101 4.106 4.106 0 014.101 4.101 4.106 4.106 0 01-4.101 4.101zm4.2-7.235a1.213 1.213 0 010-2.424 1.213 1.213 0 010 2.424z" fill-opacity=".8"/><path d="M17.5 15a2.503 2.503 0 00-2.5 2.5c0 1.378 1.122 2.5 2.5 2.5s2.5-1.122 2.5-2.5-1.122-2.5-2.5-2.5zm4.2-2.179a.333.333 0 100 .666.333.333 0 000-.666z" fill-opacity=".8"/></symbol><symbol viewBox="0 0 35 35" id="fvk" xmlns="http://www.w3.org/2000/svg"><path d="M6.575 14.174c.234.609.521 1.196.818 1.776.705 1.377 1.43 2.715 2.404 3.926.983 1.223 2.145 2.409 3.513 3.2.38.22.78.406 1.197.547 1.607.545 3.37.493 3.915.13.544-.363-.104-2.748.389-3.034.492-.285 1.374.337 2.022.908.648.57 1.14 1.063 1.504 1.452.227.243.387.534.683.708.49.287 1.144.255 1.69.257.305 0 .61.002.915-.002.206-.003.412.004.618-.006.338-.017.78-.15.756-.573a.99.99 0 00-.068-.313 2.937 2.937 0 00-.336-.577c-.674-.9-1.121-1.361-1.458-1.724-.337-.363-1.724-1.672-1.815-1.932-.09-.259-.12-.374.138-.724.257-.35.821-1.233 1.262-1.868.277-.399.528-.815.776-1.232a15 15 0 00.802-1.515c.105-.233.2-.445.135-.707-.043-.175-.142-.328-.325-.372a1.38 1.38 0 00-.312-.026h-1.38l-.542-.002c-.185 0-.372-.001-.556.015-.262.022-.423.225-.555.429-.162.25-.309.51-.465.762-.108.173-.212.347-.315.522-.161.274-.327.545-.493.816l-.205.337c-.195.324-1.88 2.541-2.217 2.632-.337.09-.454.065-.454-.622v-4.59s-.026-.3-.31-.3h-4.337s-.642.002-.415.58c.227.576.898.751.898 1.714v3.772s-.114.846-.846.146c-.577-.552-1.053-1.204-1.473-1.88a14.623 14.623 0 01-1.102-2.199c-.09-.219-.179-.438-.271-.656a42.994 42.994 0 01-.284-.684c-.107-.266-.221-.614-.51-.736-.145-.062-.305-.059-.46-.059-.574 0-1.147.002-1.721 0H7.28c-.397.002-.892-.01-.986.487-.054.285.054.59.144.859.041.121.092.238.137.358z" fill-opacity=".8"/><circle cx="17.5" cy="17.5" r="16.5"/></symbol><symbol viewBox="0 0 35 35" id="fyt" xmlns="http://www.w3.org/2000/svg"><path fill-rule="evenodd" clip-rule="evenodd" d="M35 17.5C35 7.835 27.165 0 17.5 0S0 7.835 0 17.5 7.835 35 17.5 35 35 27.165 35 17.5zm-2.1 0c0-8.505-6.895-15.4-15.4-15.4S2.1 8.995 2.1 17.5s6.895 15.4 15.4 15.4 15.4-6.895 15.4-15.4zm-7.162 4.036c-.21.908-.952 1.577-1.846 1.677-2.117.237-4.26.238-6.393.237-2.133.001-4.276 0-6.393-.237-.894-.1-1.637-.77-1.845-1.677-.298-1.293-.298-2.705-.298-4.036 0-1.331.004-2.743.3-4.036.21-.908.952-1.578 1.846-1.677 2.117-.237 4.26-.238 6.393-.237 2.134-.001 4.277 0 6.394.237.894.1 1.636.77 1.845 1.677.297 1.293.296 2.705.296 4.036 0 1.331-.002 2.743-.3 4.036zm-9.775-7.186l4.725 2.728-4.725 2.728V14.35z" fill-opacity=".8"/></symbol><symbol viewBox="0 0 17 17" id="home" xmlns="http://www.w3.org/2000/svg"><path d="M16.764 7.906L8.918.179a.58.58 0 00-.837 0L.236 7.906c-.212.208-.29.55-.197.857.094.306.34.51.615.51h1.962v6.954c0 .427.292.773.653.773h3.89c.36 0 .652-.343.655-.767l.028-4.642h1.312v4.636c0 .427.292.773.654.773h3.922c.361 0 .654-.346.654-.773V9.273h1.962c.275 0 .521-.204.615-.51.094-.306.015-.649-.197-.857zm-3.034-.179c-.36 0-.654.346-.654.773v6.955h-2.615v-4.637c0-.426-.292-.772-.653-.772H7.192c-.359 0-.65.342-.654.767l-.027 4.642H3.923V8.5c0-.427-.292-.773-.654-.773H2.46l6.04-5.95 6.04 5.95h-.81z"/></symbol><symbol viewBox="0 0 19 19" id="inst" xmlns="http://www.w3.org/2000/svg"><path fill-opacity=".8" d="M13.73.29a4.994 4.994 0 014.989 4.988v8.452a4.994 4.994 0 01-4.989 4.988H5.278A4.994 4.994 0 01.29 13.73V5.278A4.994 4.994 0 015.278.29zm.813 9.214a5.045 5.045 0 00-5.039-5.039 5.045 5.045 0 00-5.039 5.04 5.045 5.045 0 005.04 5.038 5.045 5.045 0 005.038-5.039zm1.61-5.34a1.49 1.49 0 00-1.49-1.488 1.49 1.49 0 00-1.488 1.489 1.49 1.49 0 001.489 1.489 1.49 1.49 0 001.489-1.49z"/></symbol><symbol viewBox="0 0 72 9" id="line" xmlns="http://www.w3.org/2000/svg"><path d="M0 7h70m-.224.447L60.5 1"/></symbol><symbol viewBox="0 0 22 19" id="load" xmlns="http://www.w3.org/2000/svg"><path d="M21.044 1.9a.953.953 0 00-.957.95v3.665l-3.758-3.733A9.568 9.568 0 009.565 0C4.283 0 0 4.253 0 9.5S4.283 19 9.565 19c4.628 0 8.487-3.264 9.374-7.6h-1.963a7.646 7.646 0 01-7.41 5.7c-4.227 0-7.653-3.403-7.653-7.6 0-4.197 3.426-7.6 7.652-7.6 2.114 0 4.028.851 5.413 2.228L18.474 7.6h-3.17a.953.953 0 00-.956.95c0 .525.428.95.956.95h5.74A.953.953 0 0022 8.55v-5.7a.953.953 0 00-.956-.95z"/></symbol><symbol viewBox="0 0 119 116" id="logo1" xmlns="http://www.w3.org/2000/svg"><path d="M3.658.003S21.41 4.88 31.238 30.251L42.364 55.09l27.81 60.115 11.733-25.067s3.58-7.39-3.657-21.638L51.734 11.204S48.23-.227 36.496.003H3.658zM106.82 88.995c6.27 0 11.353-5.083 11.353-11.353S113.09 66.29 106.82 66.29s-11.352 5.082-11.352 11.352c0 6.27 5.082 11.353 11.352 11.353zm-87.925-8.686S13.257 113.909 0 114.29h37.715s-17.677-2.362-12.953-21.715L18.895 80.31z"/></symbol><symbol viewBox="0 0 111 15" id="logo2" xmlns="http://www.w3.org/2000/svg"><path d="M6.166 11.238l-3.34-5.9-.48-1.22h-.08l.18 1.24v9.1h-2.3V.258h2.28l4.36 7.66.24.66h.08l.24-.66 4.36-7.66h2.28v14.2h-2.3v-9.1l.18-1.24h-.08l-.48 1.22-3.34 5.9h-1.8zm19.74-.16h-4.76l-1.22 3.78-2.14-.68 4.46-13.92h2.56l4.46 13.92-2.14.68-1.22-3.78zm-2.64-6.66l-1.46 4.56h3.44l-1.46-4.56-.22-1.36h-.08l-.22 1.36zm13.53-2.06v12.1h-2.3v-12.1h-4.04v-2.1h10.38v2.1h-4.04zm16.2 4.7l1.74 1.36v3.72l-2.32 2.32h-7.78V.258h7.76l1.92 1.92v3.84l-1.32 1.04zm-.56 2.08l-1.32-1.02h-4.18v4.24h4.5l1-1v-2.22zm-5.5-6.78v3.66h4.28l.8-.62v-2.42l-.62-.62h-4.46zm12.4 12.1V.258h9.06v2.1h-6.76v3.64h5.92v2.1h-5.92v4.26h6.76v2.1h-9.06zm13.255 0V.258h9.06v2.1h-6.76v3.64h5.92v2.1h-5.92v4.26h6.76v2.1h-9.06zm21.615-7.4l1.74 1.36v3.72l-2.32 2.32h-7.78V.258h7.76l1.92 1.92v3.84l-1.32 1.04zm-.56 2.08l-1.32-1.02h-4.18v4.24h4.5l1-1v-2.22zm-5.5-6.78v3.66h4.28l.8-.62v-2.42l-.62-.62h-4.46zm19.32 8.72h-4.76l-1.22 3.78-2.14-.68 4.46-13.92h2.56l4.46 13.92-2.14.68-1.22-3.78zm-2.64-6.66l-1.46 4.56h3.44l-1.46-4.56-.22-1.36h-.08l-.22 1.36z"/></symbol><symbol viewBox="0 0 132 15" id="logo3" xmlns="http://www.w3.org/2000/svg"><path d="M9.146 1.322l-7.9 13.32h-.9v-14h.6v13.32l7.9-13.32h.9v14h-.6V1.322zm14.794-.08v13.4h-.6v-14h9.38v14h-.6v-13.4h-8.18zm15.078 8.8l-1.54 4.7-.56-.2 4.58-13.9h1.2l4.58 13.9-.56.2-1.54-4.7h-6.16zm.2-.6h5.76l-2.7-8.2h-.36l-2.7 8.2zm12.852-.66v5.86h-.6v-14h7.52l1.86 1.84v4.46l-1.86 1.84h-6.92zm6.68-7.54h-6.68v6.94h6.68l1.52-1.5v-3.94l-1.52-1.5zm10.202 0v13.4h-.6v-13.4h-4.7v-.6h10v.6h-4.7zm17.28 5.68V.642h.6v14h-.6v-7.12h-8.18v7.12h-.6v-14h.6v6.28h8.18zm5.999 7.72v-14h8.539v.6h-7.94v5.7h7.1v.6h-7.1v6.5h7.94v.6h-8.54zm13.346-5.86v5.86h-.6v-14h7.52l1.86 1.84v4.46l-1.86 1.84h-6.92zm6.68-7.54h-6.68v6.94h6.68l1.52-1.5v-3.94l-1.52-1.5zm18.538 13.4v-14h.6v14h-.6zm-11.84 0v-14h.6v6.02h6.94l1.84 1.88v4.22l-1.84 1.88h-7.54zm8.78-5.84l-1.5-1.54h-6.68v6.78h6.68l1.5-1.54v-3.7z"/></symbol><symbol viewBox="0 0 40 41" id="loop-plus" xmlns="http://www.w3.org/2000/svg"><path d="M17.857 15.07h3.506v2.461h-3.506v4.043h-2.705v-4.043h-3.535v-2.46h3.535v-3.848h2.705v3.847z"/><circle cx="16.405" cy="16.405" r="14.905"/><path d="M29.496 30.657l8.75 8.749"/></symbol><symbol viewBox="0 0 68 76" id="map-pin" xmlns="http://www.w3.org/2000/svg"><g filter="url(#awfilter0_d)"><circle cx="34" cy="30" r="30"/><circle cx="34" cy="30" r="8"/><path d="M34.5 68l-5.63-9.75h11.26L34.5 68z"/></g><defs><filter id="awfilter0_d" x="0" y="0" width="68" height="76" filterUnits="userSpaceOnUse" color-interpolation-filters="sRGB"><feFlood flood-opacity="0" result="BackgroundImageFix"/><feColorMatrix in="SourceAlpha" values="0 0 0 0 0 0 0 0 0 0 0 0 0 0 0 0 0 0 127 0"/><feOffset dy="4"/><feGaussianBlur stdDeviation="2"/><feColorMatrix values="0 0 0 0 0.822266 0 0 0 0 0.480272 0 0 0 0 0.0788005 0 0 0 0.3 0"/><feBlend in2="BackgroundImageFix" result="effect1_dropShadow"/><feBlend in="SourceGraphic" in2="effect1_dropShadow" result="shape"/></filter></defs></symbol><symbol viewBox="0 0 40 25" id="menu" xmlns="http://www.w3.org/2000/svg"><path d="M0 0h40v5H0zm0 10h31v5H0zm0 10h21.277v5H0z"/></symbol><symbol viewBox="0 0 30 50" id="next" xmlns="http://www.w3.org/2000/svg"><path fill-rule="evenodd" clip-rule="evenodd" d="M6 49.502l-6-6.188 18-18.563L0 6.188 6 0l24 24.751L6 49.502z"/></symbol><symbol viewBox="0 0 21 20" id="phone" xmlns="http://www.w3.org/2000/svg"><path fill-rule="evenodd" clip-rule="evenodd" d="M9.857 6.338c.518-.698.703-1.434.117-2.084C8.66 2.414 7.775 1.276 7.22.73 6.166-.313 4.431-.172 3.518.728c-.49.483-.657.649-1.16 1.16C-.449 4.697 1.262 10.63 5.81 15.184c4.548 4.552 10.482 6.264 13.293 3.45.465-.447.858-.841 1.169-1.169.895-.946 1.03-2.604-.006-3.682-.532-.552-1.617-1.393-3.534-2.765-.587-.525-1.284-.411-1.922.007-.307.202-.53.406-.953.828l-.766.767c-.1.1-1.471-.586-2.801-1.917C8.96 9.37 8.274 7.999 8.374 7.899l.767-.768c.134-.134.198-.198.28-.285.171-.18.313-.343.436-.508zm4.649 7.695l.766-.767c.232-.232.383-.375.505-.474 1.68 1.206 2.653 1.965 3.05 2.378.239.248.202.7-.006.919-.287.303-.66.677-1.117 1.118-1.818 1.819-6.608.437-10.479-3.438C3.353 9.893 1.972 5.103 3.776 3.297c.502-.509.66-.668 1.144-1.144.182-.179.676-.22.896-.001.427.422 1.22 1.436 2.385 3.06-.06.074-.136.159-.228.255a9.633 9.633 0 01-.246.25l-.766.767c-1.303 1.303-.193 3.52 1.916 5.632 2.107 2.11 4.326 3.22 5.629 1.917z"/></symbol><symbol viewBox="0 0 18 23" id="pin" xmlns="http://www.w3.org/2000/svg"><path fill-rule="evenodd" clip-rule="evenodd" d="M9 22.328l.658-.575C15.188 16.923 18 12.707 18 9c0-5.25-4.097-9-9-9S0 3.75 0 9c0 3.707 2.811 7.924 8.342 12.753l.658.575zm0-2.665C4.307 15.433 2 11.85 2 9c0-4.103 3.164-7 7-7s7 2.897 7 7c0 2.85-2.307 6.434-7 10.663zM9 4a5 5 0 110 10A5 5 0 019 4zM6 9a3 3 0 116 0 3 3 0 01-6 0z"/></symbol><symbol viewBox="0 0 30 50" id="prev" xmlns="http://www.w3.org/2000/svg"><path fill-rule="evenodd" clip-rule="evenodd" d="M24 .03l6 6.188-18 18.563 18 18.563-6 6.188-24-24.75L24 .03z"/></symbol><symbol viewBox="0 0 60 55" id="quote" xmlns="http://www.w3.org/2000/svg"><path d="M0 27.5V55h25V27.5H8.333C8.333 17.391 15.81 9.167 25 9.167V0C11.214 0 0 12.336 0 27.5zM60 9.167V0C46.214 0 35 12.336 35 27.5V55h25V27.5H43.333C43.333 17.391 50.81 9.167 60 9.167z"/></symbol><symbol viewBox="0 0 28 28" id="s1" xmlns="http://www.w3.org/2000/svg"><path d="M24.877 28H3.123a.658.658 0 01-.658-.658v-14.51a.68.68 0 01.028-.194v-.003h.001v-.002l.001-.002a.655.655 0 01.634-.461h2.974l.385-2.527a.658.658 0 01.65-.559h13.723c.325 0 .601.237.65.558l.386 2.528h2.974a.653.653 0 01.627.44v.002l.001.001v.002l.001.002.001.002v.002l.001.002.001.002v.002l.001.002v.002h.001v.002l.001.002v.001l.001.001v.003l.001.002v.002l.001.002a.658.658 0 01.026.187v14.51a.658.658 0 01-.658.657zM3.78 26.684h20.438V14.2l-7.183 5.762v.62a.658.658 0 01-.658.658h-4.756a.658.658 0 01-.658-.658v-.738l-7.183-5.66v12.501zm8.5-6.76h3.439v-1.17h-3.44v1.17zm-.659-2.486h4.756c.363 0 .657.294.657.658v.178l5.97-4.789H6.68a.42.42 0 01-.023 0H5.021l5.943 4.683v-.072c0-.363.295-.658.658-.658zM7.433 12.17h13.134l-.27-1.77H7.703l-.27 1.77zm-4.31-1.5a.658.658 0 01-.658-.657V.658c0-.363.295-.658.658-.658h3.626c.363 0 .658.295.658.658v1.51h2.967c.364 0 .658.294.658.657V4.03H14c.363 0 .658.294.658.658v2.534a.658.658 0 01-1.316 0V5.346h-2.31v1.876a.658.658 0 01-1.316 0v-3.74h-2.31v3.74a.658.658 0 01-1.315 0V1.316H3.78v8.697a.658.658 0 01-.658.658z"/></symbol><symbol viewBox="0 0 26 24" id="s2" xmlns="http://www.w3.org/2000/svg"><g clip-path="url(#beclip0)"><path d="M25.5 14c-.2-.4-3.7-10.1-3.7-10.1s0-.1-.1-.1c0 0 0-.1-.1-.1l-.1-.1s-.1 0-.1-.1c0 0-.1 0-.1-.1h-7.8V.8c0-.4-.3-.8-.8-.8s-.7.3-.7.8v2.7H4.2s-.1 0-.1.1c0 0-.1 0-.1.1l-.1.1-.1.1s0 .1-.1.1L0 14v.3c0 .2.1.4.2.5.8 1.1 2.4 1.9 4.3 1.9s3.6-.8 4.3-2c.1-.2.1-.4.1-.6-.1-.3-2.4-6.6-3.3-9.1H12v17.2H6.1c-.4 0-.8.3-.8.8s.3.8.8.8h13.4c.4 0 .8-.3.8-.8s-.3-.8-.8-.8h-5.9V4.9H20l-3.3 9c-.1.1-.1.2-.1.4s.1.4.2.5c.8 1.1 2.4 1.9 4.3 1.9s3.6-.8 4.3-2c.1-.2.1-.5.1-.7zM4.4 15.1c-1.2 0-2.3-.4-2.8-1l2.9-7.8c.9 2.4 2.4 6.5 2.8 7.8-.6.6-1.7 1-2.9 1zm16.7 0c-1.2 0-2.3-.4-2.8-1l2.8-7.8c.9 2.4 2.4 6.5 2.8 7.8-.5.6-1.7 1-2.8 1z"/></g><defs><clipPath id="beclip0"><path d="M0 0h25.5v23.6H0z"/></clipPath></defs></symbol><symbol viewBox="0 0 17 26" id="s3" xmlns="http://www.w3.org/2000/svg"><g clip-path="url(#bfclip0)"><path d="M15.8 11.7c.4 0 .8-.3.8-.8V8.4c0-.4-.3-.8-.8-.8h-8c-.1-1.1 0-2.7.9-3.4.2-.1.3-.3.3-.5l1.8-1.6c.3-.3.3-.7.1-1.1-.3-.3-.8-.3-1.1-.1l-2.3 2c-.1.3-.2.4-.2.6-1.1 1.2-1.1 3-1 4.1H.8c-.5 0-.8.4-.8.8V11c0 .4.3.8.8.8h1.1v9.8H.8c-.5-.1-.8.2-.8.6v2.6c0 .4.3.8.8.8h15c.4 0 .8-.3.8-.8v-2.6c0-.4-.3-.8-.8-.8h-1.1v-9.8h1.1v.1zM1.5 9.1H15v1.1H1.5V9.1zm13.5 15H1.5V23H15v1.1zm-1.8-2.6H3.4v-9.8h9.8v9.8z"/></g><defs><clipPath id="bfclip0"><path transform="translate(0 .8)" d="M0 0h16.5v24.8H0z"/></clipPath></defs></symbol><symbol viewBox="0 0 27 22" id="s4" xmlns="http://www.w3.org/2000/svg"><g clip-path="url(#bgclip0)"><path d="M26.3 4c-.5-1.3-1.5-2.3-2.8-2.8-1.7-.7-3.6-.4-5.1.6L15.8.7c-.4-.2-.8 0-1 .4l-.5 1.3c-7-.7-9.4 4.4-10 6.1H3.2c-.4 0-.8.3-.8.8V12C1 12.9 0 14.6 0 16.4c0 2.9 2.3 5.2 5.2 5.2 2.9 0 5.2-2.3 5.2-5.2 0-1.9-1-3.5-2.5-4.4V9.3c0-.4-.3-.8-.8-.8H6c.7-1.7 2.7-4.9 7.8-4.6l-.4.9c-.1.2-.1.4 0 .6.1.2.2.3.4.4l2.6 1.1.3 1.2c.5 1.3 1.5 2.3 2.8 2.8.7.3 1.3.4 2 .4 2 0 4-1.2 4.8-3.2.5-1.4.5-2.8 0-4.1zM8.9 16.4c0 2-1.7 3.7-3.7 3.7s-3.7-1.7-3.7-3.7 1.7-3.7 3.7-3.7 3.7 1.7 3.7 3.7zm-2.5-5c-.4-.1-.8-.2-1.2-.2-.4 0-.8.1-1.2.2V10h2.4v1.4zm9.6-9l1.3.5c-.2.3-.4.7-.6 1-.2.4-.3.8-.3 1.2l-1.3-.4.9-2.3zm8.9 5c-.8 1.9-3 2.8-4.9 2-.9-.4-1.6-1.1-2-2-.4-.9-.4-1.9 0-2.8.6-1.4 2-2.3 3.4-2.3.5 0 1 .1 1.4.3.9.4 1.6 1.1 2 2 .5.9.5 1.9.1 2.8z"/></g><defs><clipPath id="bgclip0"><path transform="translate(0 .7)" d="M0 0h26.7v20.9H0z"/></clipPath></defs></symbol><symbol viewBox="0 0 26 34" id="s5" xmlns="http://www.w3.org/2000/svg"><g clip-path="url(#bhclip0)"><path d="M24.2 28.8h-1.6l-2.4-3.3c-.1-.2-.4-.3-.6-.3H5.4c-.2 0-.5.1-.6.3l-2.4 3.3H.8c-.4 0-.8.3-.8.8V33c0 .3.3.7.8.7h23.4c.4 0 .8-.3.8-.8v-3.4c-.1-.4-.4-.7-.8-.7zM5.8 26.7h13.4l1.4 1.9H4.4l1.4-1.9zm17.6 5.5H1.5v-1.9h21.9v1.9zm1.9-28.9L23.4 1c-.3-.3-.7-.4-1.1-.1L12.1 9.4l-1.6-2-2.5-3c-.4-.3-.8-.4-1.2-.1L.3 9.7c-.2.1-.3.3-.3.5s0 .4.2.5l10.7 13c.1.2.4.3.6.3.2 0 .3-.1.5-.2l6.6-5.4c.2-.1.3-.3.3-.5s0-.4-.2-.5l-2.5-2.9s0-.1-.1-.1c0 0-.1 0-.1-.1l-1-1.4 10.3-8.5c.2-.1.3-.3.3-.5-.1-.2-.1-.4-.3-.6zM4.4 13.4l5.4-4.5 1.6 2 1.9 2.3 1.1 1.4L9 19.1l-4.6-5.7zm2.8-7.5l1.6 1.9-5.4 4.5-1.6-1.9 5.4-4.5zm4.4 16.2L10 20.2l5.4-4.5 1.6 1.9-5.4 4.5zM14 11.7l-1-1.2 9.7-8 1 1.2-9.7 8z"/></g><defs><clipPath id="bhclip0"><path transform="translate(0 .7)" d="M0 0h25.5v33H0z"/></clipPath></defs></symbol><symbol viewBox="0 0 16 29" id="s6" xmlns="http://www.w3.org/2000/svg"><g clip-path="url(#biclip0)"><path d="M14.8 16.5s-3.2-3.1-3.2-6.6V1.4c0-.4-.3-.8-.8-.8H4.1c-.4 0-.7.3-.7.8v8.5c0 3.5-3.1 6.5-3.2 6.6-.1.1-.2.3-.2.6s.1.4.3.6c5.3 3.4 6.4 9.6 6.5 9.8.1.4.4.6.7.6.3 0 .7-.3.7-.6 0-.2 1.1-6.4 6.5-9.8.2-.1.3-.3.3-.6.1-.3 0-.5-.2-.6zM10.2 2.1v7H4.9v-7h5.3zM8.3 22.8v-7.9c0-.4-.3-.8-.7-.8-.4 0-.8.3-.8.8v7.9c-1-1.9-2.5-4.2-4.9-5.9 1-1.1 2.7-3.5 3-6.2h5.4c.3 2.8 2 5.1 3 6.2-2.5 1.7-4.1 4-5 5.9z"/></g><defs><clipPath id="biclip0"><path transform="translate(0 .6)" d="M0 0h15.1v27.5H0z"/></clipPath></defs></symbol><symbol viewBox="0 0 26 22" id="s7" xmlns="http://www.w3.org/2000/svg"><g clip-path="url(#bjclip0)"><path d="M25.1 6.1L13.1.7c-.2-.1-.4-.1-.6 0L.5 6.1c-.3.1-.5.4-.5.7 0 .3.2.6.4.7l2.3 1v12.6c0 .4.3.8.8.8s.8-.3.8-.8v-5.3l8.2 3.7h.6l8.5-3.8c.3-.1.4-.4.4-.7V8.9l3.1-1.4c.3-.1.4-.4.4-.7 0-.3-.2-.6-.4-.7zM4.2 14.3V9.2l7.8 3.5v5l-7.4-3.4h-.4zm16.3.2l-7 3.2v-5l7-3.2v5zm-7.7-3.1L2.6 6.8l10.2-4.6L23 6.8l-10.2 4.6z"/></g><defs><clipPath id="bjclip0"><path transform="translate(0 .6)" d="M0 0h25.5v21.2H0z"/></clipPath></defs></symbol><symbol viewBox="0 0 27 22" id="s8" xmlns="http://www.w3.org/2000/svg"><path d="M4.804 2.667l.699.273.008-.02.006-.02-.713-.233zm17.935 0l.72-.212-.003-.01-.004-.01-.713.232zM10.783 11.36a.75.75 0 000 1.5v-1.5zm5.434 1.5a.75.75 0 000-1.5v1.5zm-5.434.722a.75.75 0 000 1.5v-1.5zm5.434 1.5a.75.75 0 000-1.5v1.5zm7.91-6.15c.272.091 1.123.642 1.123 2.067h1.5c0-2.13-1.323-3.21-2.139-3.488l-.483 1.42zM25.25 11v4.444h1.5V11h-1.5zm0 4.444c0 .3-.02.46-.112.58-.069.087-.334.337-1.312.337v1.5c1.196 0 2.018-.306 2.493-.913.45-.575.431-1.247.431-1.504h-1.5zm-22.62.917a1.05 1.05 0 01-.574-.187c-.147-.108-.306-.3-.306-.73H.25c0 .905.384 1.546.917 1.938.495.364 1.068.48 1.463.48v-1.5zm-.88-.917V10.444H.25v5h1.5zm0-5c0 .007 0-.043.034-.146.032-.097.088-.226.181-.378.185-.301.517-.689 1.088-1.078l-.845-1.24C.763 8.587.25 9.758.25 10.444h1.5zm1.579-1.948L5.503 2.94l-1.397-.547L1.932 7.95l1.397.547zm2.188-5.597c.097-.296.64-1.149 2.005-1.149V.25c-2.113 0-3.165 1.37-3.43 2.184l1.425.465zM7.522 1.75h13.043V.25H7.522v1.5zm13.043 0c.34 0 1.16.226 1.461 1.15l1.426-.466C22.884.691 21.312.25 20.565.25v1.5zm1.454 1.128l1.63 5.555 1.44-.422-1.63-5.556-1.44.423zm.177 6.094h2.174v-1.5h-2.174v1.5zm.74-.87a5.757 5.757 0 00-1.023-2.413c-.622-.83-1.595-1.55-2.978-1.55v1.5c.79 0 1.358.39 1.777.95.434.578.668 1.29.743 1.754l1.48-.241zm-20.306.87h12.5v-1.5H2.63v1.5zm12.5 0h7.066v-1.5H15.13v1.5zm3.805-4.833c-1.61 0-2.636.679-3.308 1.538a6.316 6.316 0 00-.735 1.239c-.09.194-.171.382-.242.547-.073.17-.134.31-.193.43l1.347.659c.077-.158.152-.33.223-.495.073-.17.145-.337.225-.508.159-.341.335-.665.556-.948.415-.53 1.02-.962 2.127-.962v-1.5zM3.917 12.306h3.405v-1.5H3.917v1.5zm2.855-.55v2.377h1.5v-2.377h-1.5zm.55 1.827H3.917v1.5h3.405v-1.5zm-2.855.55v-2.377h-1.5v2.377h1.5zm6.316-1.272h5.434v-1.5h-5.434v1.5zm0 2.222h5.434v-1.5h-5.434v1.5zm8.895-2.777h3.405v-1.5h-3.405v1.5zm2.855-.55v2.377h1.5v-2.377h-1.5zm.55 1.827h-3.405v1.5h3.405v-1.5zm-2.855.55v-2.377h-1.5v2.377h1.5zM.25 15.444v3.89h1.5v-3.89H.25zm0 3.89c0 .445.167 1.053.638 1.554.49.523 1.245.862 2.286.862v-1.5c-.698 0-1.031-.216-1.193-.388a.833.833 0 01-.231-.529H.25zm2.924 2.416c1.107 0 1.988-.132 2.596-.547.697-.475.871-1.189.871-1.87h-1.5c0 .43-.097.55-.216.63-.206.142-.684.287-1.751.287v1.5zm20.652-5.389H5.891v1.5h17.935v-1.5zm-17.935 0H2.63v1.5h3.261v-1.5zm.75 2.972V17.111h-1.5v2.222h1.5zm13.718-2.222v2.222h1.5v-2.222h-1.5zm0 2.222c0 .447.166 1.054.638 1.555.49.523 1.245.862 2.286.862v-1.5c-.699 0-1.031-.216-1.193-.388a.833.833 0 01-.231-.529h-1.5zm2.924 2.417c1.106 0 1.988-.132 2.596-.547.696-.475.871-1.189.871-1.87h-1.5c0 .43-.097.55-.216.63-.207.142-.684.287-1.751.287v1.5zm1.967-6.306c0 .223-.069.345-.16.437-.11.112-.296.22-.578.303-.574.172-1.28.177-1.773.177v1.5c.46 0 1.386.005 2.203-.24.415-.124.864-.33 1.217-.686.371-.377.591-.88.591-1.49h-1.5zm0 0v3.89h1.5v-3.89h-1.5zm-2.717-1.31a.55.55 0 01.55-.55v1.5a.95.95 0 00.95-.95h-1.5zm.55-1.828a.55.55 0 01-.55-.55h1.5a.95.95 0 00-.95-.95v1.5zm-3.405-1.5a.95.95 0 00-.95.95h1.5a.55.55 0 01-.55.55v-1.5zm-15.76 2.777a.55.55 0 01.55.55h-1.5c0 .525.425.95.95.95v-1.5zm2.854.55a.55.55 0 01.55-.55v1.5a.95.95 0 00.95-.95h-1.5zm.55-1.827a.55.55 0 01-.55-.55h1.5a.95.95 0 00-.95-.95v1.5zm12.356 1.277a.55.55 0 01.55.55h-1.5c0 .525.426.95.95.95v-1.5zm-15.76-2.777a.95.95 0 00-.95.95h1.5a.55.55 0 01-.55.55v-1.5z"/></symbol><symbol viewBox="0 0 26 24" id="s9" xmlns="http://www.w3.org/2000/svg"><g clip-path="url(#blclip0)"><path d="M24.8 19.7h-2v-11h2c.3 0 .6-.2.7-.6.1-.3-.1-.7-.4-.8L13.1.7c-.2-.1-.5-.1-.7 0L.4 7.3c-.3.2-.5.5-.4.8.1.3.4.6.7.6h1.8v10.9H.8c-.4 0-.8.3-.8.8V23c0 .4.3.8.8.8h24c.4 0 .8-.3.8-.8v-2.6c-.1-.4-.4-.7-.8-.7zm-3.6 0H20v-11h1.3v11h-.1zm-10.7-11v10.9H6.8V8.7h3.7zm1.5 0h1.3v10.9H12V8.7zm2.8 0h3.7v10.9h-3.7V8.7zm-2-6.5l9.1 5H3.7l9.1-5zM4 8.7h1.3v10.9H4V8.7zm20 13.5H1.5v-1.1H24v1.1z"/></g><defs><clipPath id="blclip0"><path transform="translate(0 .6)" d="M0 0h25.5v23.1H0z"/></clipPath></defs></symbol><symbol viewBox="0 0 40 41" id="search" xmlns="http://www.w3.org/2000/svg"><g clip-path="url(#bmclip0)"><path d="M16.4 32.8C7.4 32.8 0 25.5 0 16.4 0 7.3 7.4 0 16.4 0c9 0 16.4 7.4 16.4 16.4 0 9-7.3 16.4-16.4 16.4zm0-29.3C9.3 3.5 3.5 9.3 3.5 16.4c0 7.1 5.8 12.9 12.9 12.9 7.1 0 12.9-5.8 12.9-12.9 0-7.1-5.8-12.9-12.9-12.9zm14.535 25.762l-2.475 2.475 8.768 8.768 2.475-2.475-8.768-8.768z"/></g><defs><clipPath id="bmclip0"><path d="M0 0h39.7v40.5H0z"/></clipPath></defs></symbol><symbol viewBox="0 0 24 24" id="share" xmlns="http://www.w3.org/2000/svg"><path d="M18 8a3 3 0 100-6 3 3 0 000 6zM6 15a3 3 0 100-6 3 3 0 000 6zm12 7a3 3 0 100-6 3 3 0 000 6zm-9.41-8.49l6.83 3.98m-.01-10.98l-6.82 3.98"/></symbol><symbol viewBox="0 0 0 0" id="sprite" xmlns="http://www.w3.org/2000/svg"/><symbol viewBox="0 0 24 24" id="tel" xmlns="http://www.w3.org/2000/svg"><path d="M23.785 18.759c0 .301-.055.694-.167 1.18-.112.485-.229.868-.352 1.147-.234.558-.915 1.15-2.042 1.774-1.05.57-2.087.854-3.114.854-.301 0-.594-.02-.879-.059a7.217 7.217 0 01-.962-.209 13.57 13.57 0 01-.796-.243 66.524 66.524 0 01-.929-.343c-.446-.167-.72-.268-.82-.301a15.17 15.17 0 01-2.93-1.39c-1.428-.881-2.904-2.084-4.428-3.607-1.523-1.524-2.726-3-3.607-4.428a15.161 15.161 0 01-1.39-2.93c-.033-.1-.134-.374-.301-.82a65.953 65.953 0 01-.344-.93 13.648 13.648 0 01-.242-.795c-.1-.357-.17-.678-.21-.962a6.458 6.458 0 01-.058-.88c0-1.026.284-2.064.854-3.113C1.693 1.577 2.284.896 2.842.662c.28-.123.661-.24 1.147-.352.485-.112.879-.167 1.18-.167a.93.93 0 01.352.05c.2.067.496.49.887 1.272.123.212.29.514.502.904.212.39.408.745.586 1.063.179.318.352.617.52.896.033.044.13.184.292.418.162.235.282.433.36.595.078.162.117.32.117.477 0 .223-.159.502-.477.837a8.16 8.16 0 01-1.038.92c-.374.28-.72.575-1.038.888-.318.312-.477.57-.477.77 0 .1.028.226.084.377a3.8 3.8 0 00.142.343c.04.078.117.212.235.402.117.19.18.295.192.318.848 1.529 1.82 2.84 2.913 3.934 1.094 1.094 2.405 2.065 3.934 2.913.022.011.128.075.318.192s.324.196.402.235a3.8 3.8 0 00.343.142c.15.056.276.084.377.084.2 0 .457-.16.77-.477.313-.319.608-.665.887-1.038.28-.374.586-.72.921-1.038.335-.318.614-.477.837-.477.156 0 .315.039.477.117.162.078.36.198.595.36.234.162.373.26.418.293.279.167.578.34.896.519.318.178.672.373 1.063.586.39.212.692.379.904.502.781.39 1.205.686 1.272.887.034.078.05.195.05.352z"/></symbol><symbol viewBox="0 0 24 24" id="time" xmlns="http://www.w3.org/2000/svg"><path fill-rule="evenodd" clip-rule="evenodd" d="M12 23C5.925 23 1 18.075 1 12S5.925 1 12 1s11 4.925 11 11-4.925 11-11 11zm0-2a9 9 0 100-18 9 9 0 000 18zm5-10h-4V6h-2v7h6v-2z"/></symbol><symbol viewBox="0 0 20 20" id="valid" xmlns="http://www.w3.org/2000/svg"><path d="M6 10l3 3 7-7"/></symbol><symbol viewBox="0 0 27 15" id="vk" xmlns="http://www.w3.org/2000/svg"><path fill-opacity=".8" d="M1.074 2.413c.286.748.64 1.47 1.004 2.182.866 1.692 1.758 3.336 2.954 4.823 1.208 1.503 2.635 2.96 4.315 3.932.468.27.96.499 1.471.672 1.975.67 4.141.605 4.81.16.669-.446-.127-3.377.478-3.727.605-.35 1.688.414 2.484 1.114a26.03 26.03 0 011.848 1.784c.28.3.476.657.84.87.602.353 1.404.314 2.076.316.375 0 .75.002 1.124-.003.253-.003.506.005.76-.007.415-.02.958-.184.927-.704a1.211 1.211 0 00-.084-.383 3.603 3.603 0 00-.411-.71c-.828-1.107-1.378-1.672-1.792-2.118-.414-.446-2.118-2.055-2.23-2.373-.111-.319-.147-.46.17-.89.316-.43 1.009-1.515 1.55-2.296.34-.49.648-1 .953-1.512.36-.604.698-1.221.986-1.862.129-.286.245-.547.166-.868-.054-.215-.175-.404-.4-.457a1.696 1.696 0 00-.383-.032h-1.696c-.222 0-.443-.003-.665-.003-.227 0-.457-.001-.683.018-.323.028-.52.276-.682.527-.199.307-.38.626-.572.937-.132.212-.26.426-.387.641-.197.337-.401.67-.605 1.002-.084.138-.169.276-.252.415-.24.398-2.31 3.121-2.724 3.233-.414.112-.557.08-.557-.765V.691s-.032-.37-.382-.37h-5.328s-.788.004-.51.713c.28.709 1.103.924 1.103 2.106v4.635s-.139 1.039-1.039.179c-.709-.678-1.293-1.479-1.81-2.31a17.962 17.962 0 01-1.354-2.701c-.11-.269-.219-.538-.332-.806a52.82 52.82 0 01-.348-.84C5.735.97 5.594.541 5.24.391 5.06.316 4.864.32 4.674.32c-.705 0-1.41.002-2.114 0h-.62C1.45.323.843.309.727.918c-.067.352.066.727.177 1.056.05.15.112.293.169.44z"/></symbol><symbol viewBox="0 0 90 90" id="warning" xmlns="http://www.w3.org/2000/svg"><circle cx="45" cy="45" r="45"/><path d="M38.231 20.208A2 2 0 0140.221 18h8.58a2 2 0 011.99 2.19l-3.333 35a2 2 0 01-1.99 1.81h-1.58a2 2 0 01-1.99-1.792l-3.667-35z"/><rect x="41" y="63" width="8" height="8" rx="2"/></symbol><symbol viewBox="-21 -117 682.667 682" id="yt" xmlns="http://www.w3.org/2000/svg"><path d="M626.813 64.035c-7.375-27.418-28.993-49.031-56.407-56.414C520.324-6.082 319.992-6.082 319.992-6.082s-200.324 0-250.406 13.184c-26.887 7.375-49.031 29.52-56.406 56.933C0 114.113 0 217.97 0 217.97s0 104.379 13.18 153.933c7.382 27.414 28.992 49.028 56.41 56.41C120.195 442.02 320 442.02 320 442.02s200.324 0 250.406-13.184c27.418-7.379 49.032-28.992 56.414-56.406 13.176-50.082 13.176-153.934 13.176-153.934s.527-104.383-13.183-154.46zM256.21 313.915V122.022l166.586 95.946zm0 0"/></symbol></svg>