<svg width="24" height="24" viewBox="0 0 24 24" fill="none" xmlns="http://www.w3.org/2000/svg">
<path d="M23.7853 18.7586C23.7853 19.06 23.7295 19.4534 23.6179 19.9389C23.5063 20.4244 23.3891 20.8066 23.2663 21.0857C23.0319 21.6437 22.3511 22.2352 21.2239 22.8602C20.1748 23.4294 19.1369 23.714 18.1101 23.714C17.8087 23.714 17.5158 23.6945 17.2312 23.6554C16.9466 23.6164 16.6257 23.5466 16.2686 23.4461C15.9114 23.3457 15.6463 23.2648 15.4734 23.2034C15.3004 23.142 14.9907 23.0276 14.5442 22.8602C14.0978 22.6928 13.8244 22.5924 13.7239 22.5589C12.6302 22.1682 11.6536 21.7051 10.7942 21.1694C9.36565 20.2877 7.88965 19.0851 6.36621 17.5617C4.84277 16.0382 3.64021 14.5622 2.75851 13.1336C2.2228 12.2743 1.75963 11.2977 1.369 10.204C1.33552 10.1035 1.23507 9.83008 1.06766 9.38365C0.900251 8.93722 0.785854 8.62751 0.72447 8.45452C0.663086 8.28153 0.582171 8.01646 0.481724 7.65932C0.381278 7.30218 0.311523 6.98131 0.272461 6.69671C0.233398 6.41211 0.213867 6.11914 0.213867 5.8178C0.213867 4.79102 0.498465 3.75307 1.06766 2.70396C1.69266 1.57673 2.28418 0.895926 2.84222 0.661551C3.12123 0.538783 3.50349 0.421596 3.98898 0.309989C4.47447 0.198382 4.86789 0.142578 5.16922 0.142578C5.32547 0.142578 5.44266 0.159319 5.52079 0.192801C5.72168 0.259766 6.01744 0.683873 6.40806 1.46512C6.53083 1.67718 6.69824 1.97852 6.9103 2.36914C7.12235 2.75977 7.31766 3.11412 7.49623 3.4322C7.6748 3.75028 7.8478 4.04883 8.01521 4.32785C8.04869 4.37249 8.14634 4.512 8.30818 4.74637C8.47001 4.98075 8.58998 5.17885 8.66811 5.34068C8.74623 5.50251 8.7853 5.66155 8.7853 5.8178C8.7853 6.04102 8.62626 6.32003 8.30818 6.65485C7.99009 6.98968 7.64411 7.2966 7.27023 7.57561C6.89634 7.85463 6.55036 8.15039 6.23228 8.46289C5.9142 8.77539 5.75516 9.03209 5.75516 9.23298C5.75516 9.33343 5.78306 9.45898 5.83887 9.60965C5.89467 9.76032 5.9421 9.87472 5.98117 9.95285C6.02023 10.031 6.09835 10.1649 6.21554 10.3546C6.33273 10.5444 6.3969 10.6504 6.40806 10.6727C7.25628 12.2017 8.22726 13.5131 9.32101 14.6069C10.4148 15.7006 11.7261 16.6716 13.2552 17.5198C13.2775 17.531 13.3835 17.5951 13.5732 17.7123C13.763 17.8295 13.8969 17.9076 13.975 17.9467C14.0532 17.9858 14.1676 18.0332 14.3182 18.089C14.4689 18.1448 14.5944 18.1727 14.6949 18.1727C14.8958 18.1727 15.1525 18.0137 15.465 17.6956C15.7775 17.3775 16.0732 17.0315 16.3523 16.6576C16.6313 16.2838 16.9382 15.9378 17.273 15.6197C17.6078 15.3016 17.8869 15.1426 18.1101 15.1426C18.2663 15.1426 18.4254 15.1816 18.5872 15.2598C18.749 15.3379 18.9471 15.4579 19.1815 15.6197C19.4159 15.7815 19.5554 15.8792 19.6 15.9127C19.879 16.0801 20.1776 16.2531 20.4957 16.4316C20.8138 16.6102 21.1681 16.8055 21.5587 17.0176C21.9494 17.2296 22.2507 17.397 22.4627 17.5198C23.244 17.9104 23.6681 18.2062 23.7351 18.4071C23.7686 18.4852 23.7853 18.6024 23.7853 18.7586Z" fill="white"/>
</svg>
