<svg xmlns="http://www.w3.org/2000/svg" width="27" height="15" viewBox="0 0 27 15"><g><g><path fill="#fff" fill-opacity=".8" d="M1.074 2.413c.286.748.64 1.47 1.004 2.182.866 1.692 1.758 3.336 2.954 4.823 1.208 1.503 2.635 2.96 4.315 3.932.468.27.96.499 1.471.672 1.975.67 4.141.605 4.81.16.669-.446-.127-3.377.478-3.727.605-.35 1.688.414 2.484 1.114.797.701 1.402 1.306 1.848 1.784.28.3.476.657.84.87.602.353 1.404.314 2.076.316.375 0 .75.002 1.124-.003.253-.003.506.005.76-.007.415-.02.958-.184.927-.704a1.211 1.211 0 0 0-.084-.383 3.603 3.603 0 0 0-.411-.71c-.828-1.107-1.378-1.672-1.792-2.118-.414-.446-2.118-2.055-2.23-2.373-.111-.319-.147-.46.17-.89.316-.43 1.009-1.515 1.55-2.296.34-.49.648-1 .953-1.512.36-.604.698-1.221.986-1.862.129-.286.245-.547.166-.868-.054-.215-.175-.404-.4-.457a1.696 1.696 0 0 0-.383-.032h-1.696c-.222 0-.443-.003-.665-.003-.227 0-.457-.001-.683.018-.323.028-.52.276-.682.527-.199.307-.38.626-.572.937-.132.212-.26.426-.387.641-.197.337-.401.67-.605 1.002-.084.138-.169.276-.252.415-.24.398-2.31 3.121-2.724 3.233-.414.112-.557.08-.557-.765V.691s-.032-.37-.382-.37H10.157s-.788.004-.51.713c.28.709 1.103.924 1.103 2.106v4.635s-.139 1.039-1.039.179c-.709-.678-1.293-1.479-1.81-2.31a17.962 17.962 0 0 1-1.354-2.701c-.11-.269-.219-.538-.332-.806a52.82 52.82 0 0 1-.348-.84C5.735.97 5.594.541 5.24.391 5.06.316 4.864.32 4.674.32c-.705 0-1.41.002-2.114 0h-.62C1.45.323.843.309.727.918c-.067.352.066.727.177 1.056.05.15.112.293.169.44z"/></g></g></svg>