<svg width="406" height="406" viewBox="0 0 406 406" fill="none" xmlns="http://www.w3.org/2000/svg">
<g id="24 / maps / route">
<path id="icon" fill-rule="evenodd" clip-rule="evenodd" d="M101.503 372.167C123.599 372.167 142.398 358.045 149.365 338.334H296.044C338.087 338.334 372.169 304.252 372.169 262.209C372.169 220.166 338.087 186.084 296.044 186.084H109.961C86.6039 186.084 67.6693 167.149 67.6693 143.792C67.6693 120.435 86.6039 101.501 109.961 101.501H162.162L140.291 123.372L164.214 147.296L226.926 84.584L164.214 21.8721L140.291 45.7958L162.162 67.6673H109.961C67.9183 67.6673 33.8359 101.75 33.8359 143.792C33.8359 185.835 67.9183 219.917 109.961 219.917H296.044C319.401 219.917 338.336 238.852 338.336 262.209C338.336 285.566 319.401 304.501 296.044 304.501H149.365C142.398 284.789 123.599 270.667 101.503 270.667C73.4742 270.667 50.7526 293.389 50.7526 321.417C50.7526 349.446 73.4742 372.167 101.503 372.167ZM84.5859 321.417C84.5859 312.074 92.1598 304.5 101.503 304.5C110.845 304.5 118.419 312.074 118.419 321.417C118.419 330.759 110.845 338.333 101.503 338.333C92.1598 338.333 84.5859 330.759 84.5859 321.417ZM304.5 33.8338C332.529 33.8338 355.25 56.5554 355.25 84.5838C355.25 112.612 332.529 135.334 304.5 135.334C276.472 135.334 253.75 112.612 253.75 84.5838C253.75 56.5554 276.472 33.8338 304.5 33.8338ZM287.586 84.5828C287.586 75.2399 295.16 67.6661 304.503 67.6661C313.845 67.6661 321.419 75.2399 321.419 84.5828C321.419 93.9256 313.845 101.499 304.503 101.499C295.16 101.499 287.586 93.9256 287.586 84.5828Z" fill="#E9BB6B" fill-opacity="0.1"/>
</g>
</svg>
