<svg width="24" height="28" viewBox="0 0 24 28" fill="none" xmlns="http://www.w3.org/2000/svg">
<path d="M22.8767 28H1.12271C0.759417 28 0.464869 27.7055 0.464869 27.3422V12.8329C0.464294 12.7674 0.473421 12.7016 0.492663 12.6379L0.492745 12.6374C0.49291 12.637 0.493074 12.6365 0.493239 12.636C0.493321 12.6356 0.493403 12.6353 0.493485 12.635C0.49365 12.6347 0.493732 12.6344 0.493814 12.6341C0.493979 12.6336 0.494061 12.6331 0.494226 12.6326C0.494308 12.6325 0.494308 12.6323 0.49439 12.6323C0.494554 12.6316 0.494719 12.631 0.494965 12.6305C0.522266 12.5433 0.567164 12.4641 0.625547 12.3968C0.68467 12.3285 0.755059 12.2751 0.831862 12.2374C0.911954 12.1978 1.00126 12.174 1.09574 12.1703C1.10684 12.1699 1.11802 12.1696 1.12896 12.1697H4.10232L4.48814 9.64255C4.53723 9.32127 4.81344 9.08396 5.13842 9.08396H18.861C19.1859 9.08396 19.4622 9.32127 19.5112 9.64246L19.8972 12.1697H22.8708C22.881 12.1696 22.8922 12.1698 22.903 12.1702C22.9943 12.1738 23.0808 12.196 23.1587 12.2332C23.2389 12.2711 23.3123 12.3258 23.3737 12.3967C23.4275 12.4587 23.4698 12.5307 23.4975 12.6097V12.6098C23.4978 12.6104 23.498 12.6111 23.4982 12.6116H23.4983C23.4984 12.6123 23.4987 12.6129 23.4988 12.6134C23.4989 12.6135 23.4989 12.6135 23.4989 12.6135C23.4991 12.6142 23.4993 12.6148 23.4996 12.6153V12.6154C23.4998 12.6161 23.5 12.6166 23.5001 12.6171C23.5002 12.6172 23.5002 12.6173 23.5002 12.6173C23.5005 12.618 23.5006 12.6185 23.5008 12.619C23.5009 12.6191 23.5009 12.6192 23.5009 12.6192C23.5011 12.6199 23.5013 12.6203 23.5015 12.6209C23.5015 12.621 23.5015 12.6212 23.5015 12.6212C23.5018 12.6217 23.502 12.6223 23.5021 12.6229L23.5022 12.6232C23.5024 12.6238 23.5025 12.6243 23.5028 12.6248L23.5029 12.6252C23.503 12.6257 23.5032 12.6263 23.5034 12.6268C23.5034 12.6269 23.5034 12.627 23.5035 12.6272C23.5037 12.6277 23.5038 12.6282 23.504 12.6287C23.504 12.6287 23.5041 12.6291 23.5042 12.6292C23.5043 12.6296 23.5044 12.6301 23.5046 12.6306C23.5047 12.6308 23.5048 12.631 23.5048 12.631C23.5049 12.6316 23.5051 12.6321 23.5052 12.6325C23.5052 12.6328 23.5053 12.6331 23.5054 12.6333C23.5056 12.6337 23.5057 12.6341 23.5058 12.6345C23.5059 12.6347 23.506 12.6351 23.5061 12.6353C23.5062 12.6357 23.5062 12.6361 23.5064 12.6364C23.5065 12.6367 23.5066 12.6371 23.5067 12.6374C23.5068 12.6378 23.5069 12.638 23.507 12.6384C23.507 12.6384 23.5072 12.6391 23.5073 12.6395C23.5074 12.6398 23.5075 12.64 23.5075 12.6402C23.5076 12.6407 23.5078 12.6411 23.508 12.6416C23.508 12.6416 23.508 12.642 23.5081 12.6422C23.5083 12.6427 23.5084 12.6432 23.5085 12.6437C23.5086 12.6439 23.5086 12.644 23.5087 12.6441C23.5089 12.6447 23.509 12.6453 23.5092 12.6458V12.6461C23.5269 12.7073 23.5352 12.7703 23.5348 12.8331V27.3426C23.5345 27.7055 23.24 28 22.8767 28ZM1.78055 26.6843H22.2188V14.1987L15.0354 19.9612V20.581C15.0354 20.9443 14.7408 21.2389 14.3775 21.2389H9.62209C9.2588 21.2389 8.96425 20.9443 8.96425 20.581V19.8431L1.78063 14.1833V26.6843H1.78055ZM10.2799 19.9232H13.7196V18.7536H10.2799V19.9232ZM9.62201 17.4379H14.3775C14.7408 17.4379 15.0353 17.7324 15.0353 18.0957V18.2745L21.0053 13.4854H19.3423C19.3351 13.4856 19.3276 13.4856 19.3202 13.4854H4.67933C4.67184 13.4856 4.66444 13.4856 4.65688 13.4854H3.02066L8.96417 18.1682V18.0957C8.96417 17.7325 9.25872 17.4379 9.62201 17.4379ZM5.43321 12.1697H18.5663L18.296 10.3996H5.70342L5.43321 12.1697ZM1.12271 10.6707C0.759417 10.6707 0.464869 10.3761 0.464869 10.0128V0.657841C0.464869 0.294548 0.759417 0 1.12271 0H4.74848C5.11177 0 5.40632 0.294548 5.40632 0.657841V2.16726H8.37401C8.7373 2.16726 9.03185 2.4618 9.03185 2.8251V4.02993H11.9998C12.3631 4.02993 12.6576 4.32448 12.6576 4.68777V7.22227C12.6576 7.58556 12.3631 7.88011 11.9998 7.88011C11.6365 7.88011 11.3419 7.58556 11.3419 7.22227V5.3457H9.03185V7.22227C9.03185 7.58556 8.7373 7.88011 8.37401 7.88011C8.01071 7.88011 7.71617 7.58556 7.71617 7.22227V3.48294H5.40632V7.22227C5.40632 7.58556 5.11177 7.88011 4.74848 7.88011C4.38519 7.88011 4.09064 7.58556 4.09064 7.22227V1.31568H1.78055V10.0128C1.78055 10.3761 1.486 10.6707 1.12271 10.6707Z" fill="#D49F40"/>
</svg>
