<svg width="28" height="22" viewBox="0 0 28 22" fill="none" xmlns="http://www.w3.org/2000/svg">
<path d="M5.46531 20.827C7.93143 20.827 9.93062 18.8348 9.93062 16.3774C9.93062 13.9199 7.93143 11.9277 5.46531 11.9277C2.99919 11.9277 1 13.9199 1 16.3774C1 18.8348 2.99919 20.827 5.46531 20.827Z" stroke="#D49F40" stroke-width="1.5" stroke-miterlimit="10" stroke-linecap="round" stroke-linejoin="round"/>
<path d="M7.43241 12.28V9.21411H3.49121V12.28" stroke="#D49F40" stroke-width="1.5" stroke-miterlimit="10" stroke-linecap="round" stroke-linejoin="round"/>
<path d="M25.8479 7.67937C26.7984 5.41162 25.724 2.80546 23.4483 1.85835C21.1725 0.911244 18.5571 1.98184 17.6067 4.24959C16.6562 6.51734 17.7306 9.1235 20.0064 10.0706C22.2821 11.0177 24.8975 9.94712 25.8479 7.67937Z" stroke="#D49F40" stroke-width="1.5" stroke-miterlimit="10" stroke-linecap="round" stroke-linejoin="round"/>
<path d="M18.6777 2.58088L15.8392 1.40063L14.3213 5.01597L17.1598 6.19621" stroke="#D49F40" stroke-width="1.5" stroke-miterlimit="10" stroke-linecap="round" stroke-linejoin="round"/>
<path d="M5.19922 9.21443C5.19922 9.21443 6.81245 2.01768 15.1032 3.16401" stroke="#D49F40" stroke-width="1.5" stroke-miterlimit="10" stroke-linecap="round" stroke-linejoin="round"/>
</svg>
